<?xml version="1.0" encoding="utf-8" ?>
<svg xmlns="http://www.w3.org/2000/svg" xmlns:xlink="http://www.w3.org/1999/xlink" width="900" height="516">
	<path fill="#A16427" d="M96.3504 224.96C96.667 229.476 94.6516 234.159 94.2706 238.684C93.7056 245.393 93.6647 252.196 93.2049 258.926C92.8282 264.443 92.001 269.952 91.6961 275.464C91.4928 279.14 92.9086 283.286 91.7215 286.802C88.7699 266.58 89.5472 244.373 96.3504 224.96Z"/>
	<path fill="#A16427" d="M291.637 467.554C318.12 469.072 345.206 466.433 371.374 462.45C380.753 461.023 392.577 457.844 401.509 457.178L401.3 457.888C396.249 459.233 390.982 459.977 385.837 460.893Q367.559 464.148 349.11 466.218C346.352 466.521 330.225 467.455 328.948 467.869C328.697 467.95 328.275 468.348 328.043 468.513L328.069 469.207L330.317 469.845L330.157 470.678C328.949 471.254 327.036 471.306 326.214 472.237L326.25 472.452L327.158 472.607L326.255 472.419L327.241 472.021L327.603 472.64C332.018 472.661 335.993 473.464 340.341 473.79Q353.494 474.662 366.671 475.043Q375.771 475.193 384.871 475.002C390.661 474.838 397.316 474.227 403.03 475.157C398.945 475.904 394.281 475.636 390.119 475.749Q370.094 476.41 350.091 475.238Q330.089 474.066 310.278 471.071C304.225 470.171 297.422 469.534 291.637 467.554Z"/>
	<path fill="#FBE94E" d="M523.498 426.97C548.609 420.129 573.748 412.845 599.302 407.841L601.657 408.044L601.58 408.291C597.029 409.256 583.042 410.873 580.697 414.065C580.317 414.582 580.173 415.194 580.116 415.823C579.881 418.404 580.355 421.074 580.298 423.672C580.252 425.775 579.715 428.044 579.824 430.096C579.885 431.254 580.343 432.439 580.258 433.596C580.13 435.349 578.401 437.954 578.627 439.544C578.638 439.623 578.671 439.697 578.693 439.773C578.782 439.714 578.865 439.643 578.961 439.596C579.793 439.183 581.061 439.402 582.003 439.177C584.771 438.514 587.388 437.302 590.134 436.578C591.677 436.172 593.28 436.16 594.823 435.763C596.997 435.205 599.173 434.256 601.429 434.16C601.146 434.485 600.879 434.829 600.549 435.108C596.989 437.02 577.199 441.482 572.277 442.825C561.161 445.857 550.135 449.217 539.007 452.204C534.156 453.506 529.061 455.223 524.088 455.799C523.51 455.835 523.113 455.722 522.564 455.548C525.375 454.316 528.515 453.677 531.474 452.883C540.028 450.588 549.094 448.866 557.302 445.502C553.298 440.702 558.918 424.821 555.401 418.985C555.196 419.093 555.146 419.125 554.901 419.221C551.514 420.547 527.187 427.548 524.533 427.407C524.291 427.395 523.746 427.075 523.498 426.97Z"/>
	<defs>
		<linearGradient id="gradient_0" gradientUnits="userSpaceOnUse" x1="346.75488" y1="85.627022" x2="267.19772" y2="121.68063">
			<stop offset="0" stop-color="#BD8029"/>
			<stop offset="1" stop-color="#E2BC61"/>
		</linearGradient>
	</defs>
	<path fill="url(#gradient_0)" d="M254.177 73.6883C300.85 77.4267 344.741 101.278 375.093 136.601Q375.615 137.211 376.116 137.837C368.378 133.041 361.49 127.054 353.617 122.317Q351.257 120.871 348.852 119.5Q346.448 118.128 344.002 116.832Q341.557 115.536 339.072 114.317Q336.587 113.097 334.065 111.956Q331.543 110.815 328.987 109.752Q326.431 108.69 323.844 107.708Q321.256 106.726 318.639 105.824Q316.022 104.923 313.378 104.104Q310.734 103.285 308.066 102.548Q305.398 101.811 302.708 101.158Q300.018 100.505 297.31 99.9356Q294.601 99.3664 291.876 98.8818Q289.151 98.3972 286.412 97.9976Q283.673 97.5981 280.923 97.284Q278.173 96.9699 275.415 96.7415Q272.656 96.5132 269.892 96.3708C264.634 96.0615 259.251 95.6652 253.992 95.9178C253.933 88.7344 253.264 80.7985 254.177 73.6883Z"/>
	<path fill="#008BC4" d="M253.506 189.806L253.735 190.02C254.669 192.698 254.059 221.507 254.116 227.093C220.584 247.636 187.367 268.809 153.562 288.891C153.382 288.64 153.125 288.428 153.021 288.137C152.469 286.601 152.965 257.504 152.876 253.383C162.884 246.516 173.557 240.339 183.829 233.847L253.506 189.806Z"/>
	<path fill="#D9AE4B" d="M523.498 426.97C523.746 427.075 524.291 427.395 524.533 427.407C527.187 427.548 551.514 420.547 554.901 419.221C555.146 419.125 555.196 419.093 555.401 418.985C558.918 424.821 553.298 440.702 557.302 445.502C549.094 448.866 540.028 450.588 531.474 452.883C528.515 453.677 525.375 454.316 522.564 455.548C523.113 455.722 523.51 455.835 524.088 455.799C521.117 457.821 513.183 458.882 509.376 459.735Q488.914 464.526 468.178 467.941Q447.442 471.357 426.525 473.382C418.797 474.122 410.784 475.259 403.03 475.157C397.316 474.227 390.661 474.838 384.871 475.002Q375.771 475.193 366.671 475.043Q353.494 474.662 340.341 473.79C335.993 473.464 332.018 472.661 327.603 472.64L327.241 472.021L326.255 472.419L327.158 472.607L326.25 472.452L326.214 472.237C327.036 471.306 328.949 471.254 330.157 470.678L330.317 469.845L328.069 469.207L328.043 468.513C328.275 468.348 328.697 467.95 328.948 467.869C330.225 467.455 346.352 466.521 349.11 466.218Q367.559 464.148 385.837 460.893C390.982 459.977 396.249 459.233 401.3 457.888L401.509 457.178C406.251 455.877 411.244 455.057 416.054 454.002Q429.736 451.004 443.357 447.736Q483.552 437.835 523.498 426.97Z"/>
	<path fill="#D9AE4B" d="M599.302 407.841C667.963 392.858 742.1 386.897 811.488 400.672C816.034 401.575 833.122 404.505 836.451 406.718C836.711 406.89 836.72 406.904 836.934 407.075C826.627 407.349 816.301 406.407 805.997 406.655Q776.783 407.08 747.681 409.674Q718.578 412.267 689.749 417.015Q660.987 421.685 632.518 427.898C623.516 429.887 609.238 434.228 600.549 435.108C600.879 434.829 601.146 434.485 601.429 434.16C599.173 434.256 596.997 435.205 594.823 435.763C593.28 436.16 591.677 436.172 590.134 436.578C587.388 437.302 584.771 438.514 582.003 439.177C581.061 439.402 579.793 439.183 578.961 439.596C578.865 439.643 578.782 439.714 578.693 439.773C578.671 439.697 578.638 439.623 578.627 439.544C578.401 437.954 580.13 435.349 580.258 433.596C580.343 432.439 579.885 431.254 579.824 430.096C579.715 428.044 580.252 425.775 580.298 423.672C580.355 421.074 579.881 418.404 580.116 415.823C580.173 415.194 580.317 414.582 580.697 414.065C583.042 410.873 597.029 409.256 601.58 408.291L601.657 408.044L599.302 407.841Z"/>
	<defs>
		<linearGradient id="gradient_1" gradientUnits="userSpaceOnUse" x1="92.480408" y1="253.1335" x2="169.07536" y2="259.26559">
			<stop offset="0" stop-color="#9E6220"/>
			<stop offset="1" stop-color="#ECC158"/>
		</linearGradient>
	</defs>
	<path fill="url(#gradient_1)" d="M186.338 134.767C174.832 142.125 161.729 149.166 152.906 159.895C147.881 165.316 142.952 170.799 138.645 176.818Q137.012 179.103 135.473 181.453Q133.934 183.803 132.492 186.214Q131.05 188.624 129.707 191.091Q128.364 193.558 127.123 196.078Q125.881 198.597 124.743 201.165Q123.605 203.733 122.572 206.345Q121.539 208.957 120.613 211.609Q119.687 214.261 118.869 216.949Q118.052 219.636 117.344 222.354Q116.636 225.073 116.04 227.818Q115.443 230.563 114.958 233.329Q114.474 236.096 114.102 238.881Q113.73 241.665 113.472 244.462Q113.213 247.259 113.069 250.064Q112.924 252.87 112.894 255.678Q112.863 258.487 112.947 261.295Q113 262.87 113.09 264.443Q113.181 266.016 113.31 267.586Q113.438 269.157 113.605 270.724Q113.772 272.291 113.976 273.853Q114.18 275.415 114.423 276.972Q114.665 278.529 114.945 280.08Q115.224 281.63 115.542 283.174Q115.859 284.717 116.213 286.253Q116.568 287.788 116.959 289.314Q117.351 290.84 117.779 292.357Q118.207 293.873 118.672 295.379Q119.137 296.884 119.638 298.378Q120.139 299.872 120.676 301.353Q121.213 302.835 121.786 304.303Q122.358 305.77 122.966 307.224Q123.574 308.678 124.217 310.116Q124.86 311.555 125.538 312.977Q126.216 314.4 126.928 315.805Q127.639 317.211 128.385 318.599Q129.131 319.987 129.91 321.357Q130.689 322.726 131.5 324.077Q132.312 325.427 133.157 326.757Q134.001 328.088 134.877 329.397Q135.753 330.707 136.661 331.994Q137.568 333.282 138.507 334.548Q139.445 335.814 140.414 337.056Q141.383 338.299 142.382 339.517Q143.38 340.736 144.408 341.93Q145.436 343.124 146.492 344.293Q147.549 345.462 148.633 346.606Q149.717 347.749 150.829 348.865Q151.941 349.982 153.079 351.071C156.221 354.571 160.137 357.041 163.517 360.244C162.609 360.213 162.261 360.317 161.519 359.762C161.523 359.816 161.534 359.87 161.53 359.924C161.309 362.852 160.234 365.559 159.759 368.386C159.091 372.358 159.803 376.423 158.159 380.216L153.061 377.648C149.834 375.907 146.723 373.748 143.751 371.606C115.412 351.182 97.3152 321.25 91.7215 286.802C92.9086 283.286 91.4928 279.14 91.6961 275.464C92.001 269.952 92.8282 264.443 93.2049 258.926C93.6647 252.196 93.7056 245.393 94.2706 238.684C94.6516 234.159 96.667 229.476 96.3504 224.96C96.366 224.871 96.3753 224.781 96.3972 224.694C103.665 195.698 127.908 165.896 152.929 150.177C163.688 143.735 174.37 138.633 186.338 134.767Z"/>
	<defs>
		<linearGradient id="gradient_2" gradientUnits="userSpaceOnUse" x1="64.963776" y1="215.54547" x2="164.17145" y2="225.85956">
			<stop offset="0" stop-color="#985E24"/>
			<stop offset="1" stop-color="#E7B245"/>
		</linearGradient>
	</defs>
	<path fill="url(#gradient_2)" d="M168.679 86.4086C168.754 86.4237 168.83 86.4416 168.906 86.4537C170.898 86.7685 173.189 85.0691 174.908 86.0825C176.233 86.864 177.319 88.1674 178.564 89.074C176.204 90.7133 172.078 92.6011 170.374 94.767L170.492 95.4119C164.702 99.2993 158.713 102.93 152.976 106.881L152.994 131.204C124.32 154.151 103.201 181.287 92.5612 216.933Q91.9731 218.889 91.4341 220.858Q90.8951 222.828 90.4057 224.811Q89.9163 226.794 89.4767 228.788Q89.0371 230.782 88.6476 232.787Q88.2581 234.792 87.919 236.806Q87.5798 238.819 87.2913 240.841Q87.0027 242.863 86.7649 244.891Q86.5271 246.92 86.3401 248.953Q86.1532 250.987 86.0173 253.025Q85.8814 255.062 85.7966 257.103Q85.7118 259.143 85.6781 261.185Q85.6445 263.227 85.662 265.269Q85.6796 267.311 85.7482 269.352Q85.8169 271.394 85.9367 273.432Q86.0565 275.471 86.2274 277.506Q86.3983 279.541 86.6201 281.571Q86.8419 283.601 87.1145 285.625Q87.3871 287.649 87.7103 289.666Q88.0335 291.682 88.4071 293.69Q88.7808 295.698 89.2046 297.695Q89.6285 299.693 90.1022 301.68Q90.576 303.666 91.0994 305.64Q91.6228 307.614 92.1954 309.574Q92.7681 311.535 93.3898 313.48Q94.0114 315.425 94.6816 317.354Q95.3517 319.283 96.07 321.195Q96.7883 323.107 97.5543 325Q98.3203 326.893 99.1335 328.766Q99.9466 330.64 100.806 332.492Q101.666 334.344 102.572 336.174Q103.478 338.005 104.43 339.812Q105.381 341.618 106.378 343.401C109.509 349.085 112.781 354.84 116.609 360.084C119.266 363.723 122.949 367.177 125.017 371.153C125.077 371.27 125.136 371.388 125.195 371.505C101.205 350.741 82.0839 325.553 71.6626 295.272Q70.9974 293.35 70.3797 291.412Q69.762 289.473 69.1922 287.521Q68.6225 285.568 68.101 283.602Q67.5795 281.636 67.1065 279.657Q66.6336 277.679 66.2096 275.689Q65.7855 273.7 65.4106 271.7Q65.0357 269.701 64.7101 267.693Q64.3846 265.685 64.1085 263.67Q63.8325 261.654 63.6062 259.633Q63.3799 257.611 63.2035 255.585Q63.0271 253.558 62.9006 251.528Q62.7741 249.497 62.6977 247.465Q62.6212 245.432 62.5949 243.398Q62.5685 241.364 62.5923 239.33Q62.6161 237.296 62.6899 235.263Q62.7637 233.23 62.8876 231.2Q63.0115 229.169 63.1854 227.142Q63.3592 225.116 63.583 223.094Q63.8067 221.072 64.0801 219.056Q64.3536 217.04 64.6766 215.032Q64.9996 213.024 65.372 211.024Q65.7444 209.024 66.1659 207.034Q66.5874 205.044 67.0578 203.065Q67.5282 201.086 68.0472 199.119Q68.5662 197.152 69.1335 195.199Q69.7007 193.245 70.3159 191.306Q70.9312 189.367 71.5939 187.444Q72.2567 185.521 72.9667 183.615Q73.6766 181.709 74.4333 179.82Q75.19 177.932 75.993 176.063Q76.7959 174.194 77.6447 172.346Q78.4934 170.497 79.3874 168.67Q80.8063 165.827 82.3299 163.038Q83.8534 160.25 85.4795 157.52Q87.1056 154.79 88.832 152.122Q90.5584 149.455 92.3828 146.853Q94.2071 144.251 96.1268 141.719Q98.0466 139.187 100.059 136.728Q102.072 134.27 104.174 131.887Q106.276 129.505 108.466 127.202Q110.655 124.899 112.929 122.68Q115.203 120.46 117.557 118.326Q119.911 116.193 122.344 114.148Q124.776 112.103 127.282 110.15Q129.788 108.198 132.366 106.339Q134.943 104.481 137.587 102.72Q140.232 100.958 142.94 99.2964Q145.648 97.6346 148.416 96.0746C154.874 92.4021 161.627 88.7964 168.679 86.4086Z"/>
	<path fill="#00467C" d="M152.964 305.363C167.502 295.164 183.129 286.086 198.163 276.603C216.759 264.872 235.179 252.657 254.085 241.445C253.565 264.703 253.992 288.034 253.982 311.301C253.971 335.525 253.547 359.844 254.082 384.058C242.346 385.956 230.026 384.928 218.286 383.61C216.146 382.674 213 382.423 210.661 381.886Q204.583 380.538 198.676 378.569Q192.128 376.434 185.893 373.507Q179.659 370.579 173.834 366.904C170.443 364.807 167.218 362.388 163.776 360.392L163.517 360.244C160.137 357.041 156.221 354.571 153.079 351.071C153.077 335.868 153.427 320.556 152.964 305.363Z"/>
	<path fill="#00467C" d="M197.743 77.6343C203.193 74.907 208.496 70.9148 213.62 67.5906C227.031 58.8909 240.307 49.5983 254.124 41.5848Q253.917 57.6371 254.177 73.6883C253.264 80.7985 253.933 88.7344 253.992 95.9178Q254.189 120.526 254.061 145.135C254.048 155.198 254.279 165.332 254 175.385L188.264 215.825C176.656 222.987 165.097 230.84 153.081 237.279C153.422 211.514 152.952 185.669 152.906 159.895C161.729 149.166 174.832 142.125 186.338 134.767C174.37 138.633 163.688 143.735 152.929 150.177Q152.88 140.69 152.994 131.204L152.976 106.881C158.713 102.93 164.702 99.2993 170.492 95.4119L170.374 94.767C172.078 92.6011 176.204 90.7133 178.564 89.074C177.319 88.1674 176.233 86.864 174.908 86.0825C173.189 85.0691 170.898 86.7685 168.906 86.4537C168.83 86.4416 168.754 86.4237 168.679 86.4086C177.587 82.0514 187.991 79.2573 197.743 77.6343Z"/>
	<path fill="#D9AE4B" d="M168.679 86.4086C177.587 82.0514 187.991 79.2573 197.743 77.6343C190.516 83.2194 178.417 90.9674 170.492 95.4119L170.374 94.767C172.078 92.6011 176.204 90.7133 178.564 89.074C177.319 88.1674 176.233 86.864 174.908 86.0825C173.189 85.0691 170.898 86.7685 168.906 86.4537C168.83 86.4416 168.754 86.4237 168.679 86.4086Z"/>
	<path fill="#00467C" d="M363.476 169.625C377.42 178.169 391.512 186.651 405.189 195.614C405.176 189.583 405.278 183.526 404.881 177.506L431.497 177.531L431.544 211.753C452.688 225.359 474.22 238.444 495.579 251.712C504.823 257.454 514.612 262.832 523.473 269.111C524.175 269.608 524.583 269.995 524.959 270.778C509.08 270.495 493.188 270.773 477.306 270.566C477.637 291.759 477.461 313 477.408 334.198C477.377 346.644 477.591 359.101 477.425 371.544L402.888 388.857C389.811 391.818 376.684 395.004 363.48 397.337C363.161 386.923 363.427 376.444 363.423 366.02L363.371 309.68L363.476 169.625Z"/>
	<path fill="#008BC4" d="M265.117 109.03C276.103 114.882 286.643 122.442 297.211 129.089C316.088 140.961 335.145 152.614 353.732 164.937L353.78 399.485C357 398.752 360.231 397.924 363.48 397.337C376.684 395.004 389.811 391.818 402.888 388.857L477.425 371.544C484.838 369.473 492.533 368.081 500.073 366.555Q521.561 362.059 543.277 358.841C627.789 346.037 744.862 340.791 821.657 384.001C824.167 385.414 833.293 390.088 834.015 392.864C834.047 392.988 834.069 393.115 834.096 393.24C828.247 389.275 813.69 386.985 806.285 385.631C736.715 372.911 654.23 380.868 585.015 394.144Q541.946 402.321 499.625 413.756C471.054 421.393 442.899 429.935 413.918 436.03C311.605 457.546 190.333 455.97 100.753 395.237C90.5238 388.302 77.7114 378.885 70.0774 369.346C96.84 385.539 123.293 396.736 153.305 405.385C153.311 396.18 153.648 386.832 153.061 377.648L158.159 380.216C159.803 376.423 159.091 372.358 159.759 368.386C160.234 365.559 161.309 362.852 161.53 359.924C161.534 359.87 161.523 359.816 161.519 359.762C162.261 360.317 162.609 360.213 163.517 360.244L163.776 360.392C167.218 362.388 170.443 364.807 173.834 366.904Q179.659 370.579 185.893 373.507Q192.128 376.434 198.676 378.569Q204.583 380.538 210.661 381.886C213 382.423 216.146 382.674 218.286 383.61C230.026 384.928 242.346 385.956 254.082 384.058C257.79 383.259 261.642 382.785 265.397 382.215C264.664 374.345 265.063 366.231 265.07 358.323L265.1 317.179L265.109 173.909L265.236 130.951C265.25 123.69 265.543 116.278 265.117 109.03ZM254.027 388.689L254.028 413.595Q259.649 413.381 265.262 413.006C264.685 405.87 264.55 391.969 265.295 384.946C261.817 386.309 257.688 388.114 254.027 388.689Z"/>
	<path fill="#00467C" d="M158.159 380.216C159.803 376.423 159.091 372.358 159.759 368.386C160.234 365.559 161.309 362.852 161.53 359.924C161.534 359.87 161.523 359.816 161.519 359.762C162.261 360.317 162.609 360.213 163.517 360.244L163.776 360.392C167.218 362.388 170.443 364.807 173.834 366.904Q179.659 370.579 185.893 373.507Q192.128 376.434 198.676 378.569Q204.583 380.538 210.661 381.886C213 382.423 216.146 382.674 218.286 383.61C230.026 384.928 242.346 385.956 254.082 384.058C257.79 383.259 261.642 382.785 265.397 382.215C269.018 381.465 272.509 380.465 276.042 379.377C272.929 381.656 267.977 382.546 265.295 384.946C261.817 386.309 257.688 388.114 254.027 388.689L254.028 413.595C246.229 414.479 238.254 414.515 230.412 414.522C202.12 414.545 180.752 411.249 153.305 405.385C153.311 396.18 153.648 386.832 153.061 377.648L158.159 380.216Z"/>
	<path fill="#D9AE4B" d="M158.159 380.216C159.803 376.423 159.091 372.358 159.759 368.386C160.234 365.559 161.309 362.852 161.53 359.924C161.534 359.87 161.523 359.816 161.519 359.762C162.261 360.317 162.609 360.213 163.517 360.244L163.776 360.392C167.218 362.388 170.443 364.807 173.834 366.904Q179.659 370.579 185.893 373.507Q192.128 376.434 198.676 378.569Q204.583 380.538 210.661 381.886C213 382.423 216.146 382.674 218.286 383.61C230.026 384.928 242.346 385.956 254.082 384.058C257.79 383.259 261.642 382.785 265.397 382.215C269.018 381.465 272.509 380.465 276.042 379.377C272.929 381.656 267.977 382.546 265.295 384.946C261.817 386.309 257.688 388.114 254.027 388.689C245.094 391.359 228.61 395.405 219.44 394.261C199.001 396.005 176.128 389.628 158.159 380.216Z"/>
	<path fill="#C68A30" d="M265.397 382.215C269.018 381.465 272.509 380.465 276.042 379.377C272.929 381.656 267.977 382.546 265.295 384.946C261.817 386.309 257.688 388.114 254.027 388.689C245.094 391.359 228.61 395.405 219.44 394.261C222.41 391.612 241.04 393.829 245.227 389.269C246.179 388.232 246.247 387.226 246.14 385.883C244.338 384.82 222.413 386.961 218.468 383.773C218.405 383.722 218.347 383.664 218.286 383.61C230.026 384.928 242.346 385.956 254.082 384.058C257.79 383.259 261.642 382.785 265.397 382.215Z"/>
</svg>
