<?xml version="1.0" encoding="utf-8"?>
<!-- Generator: Adobe Illustrator 24.0.0, SVG Export Plug-In . SVG Version: 6.00 Build 0)  -->
<svg version="1.1" id="Layer_1" xmlns="http://www.w3.org/2000/svg" xmlns:xlink="http://www.w3.org/1999/xlink" x="0px" y="0px"
	 viewBox="0 0 34.1 28.8" style="enable-background:new 0 0 34.1 28.8;" xml:space="preserve">
<style type="text/css">
	.st0{fill:#FF8000;}
</style>
<g>
	<g>
		<polygon class="st0" points="15.2,2 15.2,4.4 29.7,4.4 29.7,24.4 15.2,24.4 15.2,26.8 32.1,26.8 32.1,2 		"/>
		<polygon class="st0" points="34.1,28.8 13.2,28.8 13.2,22.4 27.7,22.4 27.7,6.4 13.2,6.4 13.2,0 34.1,0 		"/>
	</g>
	<g>
		<path class="st0" d="M8,19.5c0.2,0,0.2-0.2,0.2-0.3v-2.9H22v-3.5H8.2v-3c0-0.3-0.3-0.5-0.5-0.2L1.6,14c-0.2,0.3-0.2,0.5,0,0.8
			l6.1,4.5C7.9,19.5,8,19.5,8,19.5z"/>
		<path class="st0" d="M8,21c-0.2,0-0.8-0.1-1.3-0.5l-6.3-4.7l-0.2-0.3c-0.4-0.7-0.4-1.4,0-2.1L0.4,13l6.2-4.6
			C7.1,8,7.7,7.8,8.3,7.9c0.8,0.2,1.4,0.9,1.4,1.8v1.5h13.8v6.5H9.7v1.4C9.7,20.6,8.6,21,8,21z M3.6,14.4l3.1,2.3v-1.9h13.8v-0.5
			H6.7v-2.1L3.6,14.4z"/>
	</g>
</g>
</svg>
