<svg xmlns="http://www.w3.org/2000/svg" viewBox="0 0 90.2 61">
  <defs>
    <style>
      .cls-1 {
        fill: #ff8000;
        fill-rule: evenodd;
      }
    </style>
  </defs>
  <title>Asset 1</title>
  <g id="Layer_2" data-name="Layer 2">
    <g id="Layer_1-2" data-name="Layer 1">
      <path class="cls-1" d="M84.6,61H5.6a5.6,5.6,0,0,1,0-11.2h79a5.6,5.6,0,1,1,0,11.2Zm0-24.9H5.6a5.6,5.6,0,0,1,0-11.2h79a5.6,5.6,0,1,1,0,11.2Zm0-24.8H5.6A5.59,5.59,0,0,1,0,5.7,5.68,5.68,0,0,1,5.6,0h79a5.59,5.59,0,0,1,5.6,5.6A5.68,5.68,0,0,1,84.6,11.3Z"/>
    </g>
  </g>
</svg>
