<?xml version="1.0" encoding="utf-8"?>
<!-- Generator: Adobe Illustrator 24.0.0, SVG Export Plug-In . SVG Version: 6.00 Build 0)  -->
<svg version="1.1" id="Layer_1" xmlns="http://www.w3.org/2000/svg" xmlns:xlink="http://www.w3.org/1999/xlink" x="0px" y="0px"
	 viewBox="0 0 1349 596" style="enable-background:new 0 0 1349 596;" xml:space="preserve">
<style type="text/css">
	.st0{fill:#060B35;}
	.st1{clip-path:url(#SVGID_2_);}
	.st2{fill-rule:evenodd;clip-rule:evenodd;fill:#545454;}
</style>
<rect class="st0" width="1349" height="596"/>
<g>
	<defs>
		<rect id="SVGID_1_" width="1349" height="596"/>
	</defs>
	<clipPath id="SVGID_2_">
		<use xlink:href="#SVGID_1_"  style="overflow:visible;"/>
	</clipPath>
	<g id="Layer_2_1_" class="st1">
		<g id="Layer_1-2">
			<g>
				<polygon class="st2" points="1136.8,114.5 1192.6,56 1192.6,482 1136.8,482 				"/>
				<polygon class="st2" points="1267.8,192.8 1323.4,134.2 1323.4,482 1267.8,482 				"/>
				<polygon class="st2" points="1236.9,112.2 1227,101.6 1227,482 1236.9,482 				"/>
				<polygon class="st2" points="1257.9,134 1247.9,123.4 1247.9,482 1257.9,482 				"/>
				<polygon class="st2" points="1365.2,472.4 1027.4,472.4 1027.4,482 1365.2,482 				"/>
				<polygon class="st2" points="1214.3,88.4 1204.3,77.9 1204.3,482 1214.3,482 				"/>
				<polygon class="st2" points="1366,191.6 1355.8,181 1355.3,482 1365.2,482 				"/>
				<polygon class="st2" points="1343.3,167.8 1333.1,157.3 1332.6,482 1342.6,482 				"/>
				<polygon class="st2" points="1027.4,292.6 1083.2,234.4 1083.2,482 1027.4,482 				"/>
				<polygon class="st2" points="1126.6,282.8 1116.6,272.2 1115.8,482 1125.8,482 				"/>
				<polygon class="st2" points="1103.9,259 1093.9,248.4 1093.2,482 1103.1,482 				"/>
			</g>
		</g>
	</g>
</g>
</svg>
