<?xml version="1.0" encoding="utf-8"?>
<!-- Generator: Adobe Illustrator 24.0.0, SVG Export Plug-In . SVG Version: 6.00 Build 0)  -->
<svg version="1.1" id="Layer_1" xmlns="http://www.w3.org/2000/svg" xmlns:xlink="http://www.w3.org/1999/xlink" x="0px" y="0px"
	 viewBox="0 0 483 754" style="enable-background:new 0 0 483 754;" xml:space="preserve">
<style type="text/css">
	.st0{fill:#060B35;}
	.st1{fill:#5C5C5C;}
</style>
<rect x="0.3" y="-0.3" class="st0" width="483" height="754"/>
<path class="st1" d="M180.3,212.4c2.2-1.5,2.2-1.8,0.7-2.7c-2.2-1.3-8.9,0.9-8.9,2.9C172.1,214.7,177.2,214.5,180.3,212.4z"/>
<path class="st1" d="M158.2,217.2c-5,2.2-6.5,5.2-2.7,5.2c1.2,0,4-1,6.4-2.2c3.7-1.9,4-2.4,2.7-3.7
	C163.3,215.2,162.5,215.3,158.2,217.2z"/>
<path class="st1" d="M10,192.4c1.2,0,2.2,0.6,2.1,1.3c-0.3,3,2,2.1,4.7-1.8c1.6-2.3,2.4-4.3,1.9-4.5s-1-1-1-1.9
	c0-0.9-2.1-3.6-4.8-6.2c-4.4-4.2-4.6-4.8-3.2-6.4c1.2-1.3,1.3-2.2,0.5-3.6c-1.4-2.5,0.8-8,3.1-8c1,0,1.2-0.3,0.7-0.8
	c-1.3-1-1.9-3.2-1.8-6.5c0.3-5.2-0.8-7.4-4.7-9c-2.1-0.9-5.3-2.7-7.1-4.1c0,0-0.1,0-0.1-0.1v65.7c2-2.7,4-5.9,5-8.3
	C7.2,193.8,8.3,192.4,10,192.4z M7.4,159.2c-0.8,1.9-1.1,2-2.2,0.7c-1-1.2-1-1.8,0.3-2.9C7.6,155.3,8.7,156.4,7.4,159.2z M3.6,152.1
	c-0.4-0.6,0.1-1.6,0.9-2.3c1.7-1.4,2-0.3,0.6,1.9C4.6,152.6,4,152.7,3.6,152.1z M5.6,180.5c2.1-0.8,6.1,1.9,7.6,5.1
	c1.6,3.4,1.5,3.6-0.8,3.6c-1.1,0-3.4-1.3-5.2-3C3.6,182.8,3.2,181.4,5.6,180.5z"/>
<path class="st1" d="M138.2,197.7c3-1.5,3.5-1.5,6.7,0c1.9,0.9,4.6,1.4,5.9,1.1s2.7-0.1,3.1,0.4c0.4,0.6-1.1,1.3-3.3,1.7
	c-6.1,1-9.2,3.6-13.6,10.9c-3.7,6.2-3.9,6.9-2.4,8.5c1.4,1.6,1.8,1.6,3.8,0.2c1-0.5,3.2-3.7,4.6-6.7c2.8-5.8,7.9-10.1,12.1-10.1
	c3,0,3,0.5,0.3,4l-2.2,2.7l2.2,1.8c1.8,1.4,2.7,1.6,4.7,0.6c1.4-0.6,2.8-2,3.2-3.2c0.5-1.5,1.3-1.9,3.1-1.4c1.7,0.4,2.7,0.1,3.4-1.2
	c2.1-3.8-3.3-8.6-7.2-6.5c-2.8,1.5-6.5-1.5-5.7-4.7c0.3-1.2-0.3-3.2-1.3-4.6c-2.1-2.8-5.4-3.1-12.5-1.1c-2.6,0.7-5.5,1.3-6.5,1.2
	c-1,0-1.6,0.4-1.2,0.9c0.3,0.5,0.2,1-0.2,1c-0.5,0-2,0.9-3.4,2l-2.6,2l2.9,1.1C134.4,199.2,135.7,199,138.2,197.7z"/>
<path class="st1" d="M260.8,656.1c-5.1-0.4-6.9-0.1-6.2,1c0.4,0.6,0,1.1-0.7,1.1c-0.8,0-0.5,0.6,0.6,1.2c1.5,0.9,2.2,0.7,3.2-0.6
	c0.7-0.9,1.6-1.7,2.1-1.7s0.3,0.5-0.4,1.2c-0.6,0.7-1.2,1.6-1.2,2.1c0,1.5,2.1,0.9,4.8-1.1C265.8,657.1,265.4,656.4,260.8,656.1z"/>
<path class="st1" d="M431.4,114.4c-2.3,0.7-5,0.9-6.1,0.6c-3.1-1-12.2,2.4-12.8,4.8c-0.4,1.6-0.1,1.9,1.2,1.5
	c0.9-0.3,3.1,0.4,4.8,1.5c1.7,1.1,3.8,1.9,4.7,1.5c9.5-2.5,13.4-4,15.5-5.6l2.5-1.9l-2.8-1.8C435.9,113.4,435,113.3,431.4,114.4z"/>
<path class="st1" d="M211.3,366.6c-1.2,0-1.9,0.3-1.5,0.7c0.3,0.4,0.1,1.3-0.5,2.1c-0.9,1.1-0.7,1.4,1,1.4c1.2,0,2.3-0.9,2.6-2.1
	C213.3,367.1,212.9,366.6,211.3,366.6z"/>
<path class="st1" d="M212.5,261.3c-0.5,0.4-1,0.8-1,1.1c0,0.3,0.5,0.5,1,0.5s1-0.5,1-1.1C213.5,261.2,213.1,260.9,212.5,261.3z"/>
<path class="st1" d="M215.7,335.5c0.6,0,0.9-0.4,0.5-1c-0.4-0.5-0.8-1-1.1-1s-0.5,0.4-0.5,1C214.6,335,215.1,335.5,215.7,335.5z"/>
<path class="st1" d="M224.4,354.2c-0.3,0-0.5,0.4-0.5,1s0.5,1,1.1,1c0.6,0,0.9-0.4,0.5-1C225.1,354.7,224.7,354.2,224.4,354.2z"/>
<path class="st1" d="M215.6,339.1c-0.5,0.4-1,1.1-1,1.7c0,0.6,0.5,0.7,1,0.4c0.5-0.4,1-1.1,1-1.7
	C216.6,338.9,216.2,338.7,215.6,339.1z"/>
<path class="st1" d="M218.7,347.4c-0.5,0.4-1,0.8-1,1.1s0.5,0.5,1,0.5s1-0.5,1-1.1S219.2,347,218.7,347.4z"/>
<path class="st1" d="M236,667.3c-3.4-2.2-6.8-4-7.6-4c-0.8,0-1.9,1.3-2.5,2.8c-1.2,3.3,0.2,5.2,5.5,7.2c1.9,0.7,4.8,1.1,6.4,0.8
	c1.6-0.2,4.6-0.5,6.7-0.5l3.8-0.1l-3.1-1.1C243.6,671.8,239.4,669.5,236,667.3z"/>
<path class="st1" d="M381.6,343.8c-0.5,0-1,0.4-1,1c0,0.6,0.5,1.1,1,1c0.5,0,1-0.5,1-1S382.2,343.8,381.6,343.8z"/>
<path class="st1" d="M371.2,335.5c-0.6,0-0.9,0.4-0.5,1c0.4,0.6,0.9,1.1,1.1,1c0.3,0,0.5-0.5,0.5-1S371.8,335.5,371.2,335.5z"/>
<path class="st1" d="M276.6,106.2c-1.7-1.2-2.4-2.7-2.4-5.2c0-3.3-0.4-3.6-5.1-5.1c-3-0.9-6-2.8-7.4-4.5c-2-2.5-2.7-2.8-4.5-1.8
	c-3,1.6-3.4,1.5-8.8-2c-4-2.7-5.4-3.1-8.6-2.5c-2.1,0.4-5.3,2-7.2,3.7c-4.5,3.9-6,1.9-1.9-2.5l3-3.2l-4.1,0.7c-5.2,1-14,7.2-14,10
	c0,1.5,6.2,3.1,9.5,2.5c2-0.3,5.8-0.1,8.5,0.5c4.1,0.9,5.5,0.8,8.1-0.5c2.9-1.6,3.3-1.5,6.6,0.5c1.9,1.2,4.7,4.3,6.2,6.8
	s3.1,4.6,3.5,4.6c0.4,0,1.7,0.7,2.8,1.5c1.9,1.5,1.9,1.6-1.1,2.7c-2.2,0.9-3.8,0.9-5.5,0.1c-2.8-1.3-7.8,0.7-8.9,3.6
	c-0.6,1.4-1.6,1.6-6.3,1c-6.2-0.8-11.8,0.9-8.7,2.6c0.9,0.5,3.1,0.5,5.1-0.1c5.8-1.7,7.8-1.2,10,2.2c1.1,1.8,3.9,4.3,6.1,5.7
	c4,2.5,9.2,3.3,10.1,1.9c0.2-0.5-0.9-1.7-2.6-2.7c-5.4-3.2-1.5-5.2,4.3-2.2c2.9,1.5,3.1,1.5,4.2-0.9c0.9-1.9,0.8-3.2-0.5-5.7
	c-1.6-3-1.6-3.3,0.4-4.3c1.6-0.8,3-0.6,6.2,1c4.6,2.3,6.2,2.1,8.3-1.2C283.4,111,283.6,111.2,276.6,106.2z"/>
<path class="st1" d="M325.1,51.3l-5.1,0.6c-2.8,0.3-11.4,1-19.2,1.5c-15,0.9-37.8,3-38.3,3.5c-0.7,0.7,15.4,1.7,17.7,1.1
	c3.4-0.9,4.5,1.1,1.6,2.7c-1.5,0.9-5.2,1.1-11.2,0.7c-9.6-0.6-12.6,0.1-9.9,2.3c2.6,2.1,0.8,3.3-3.9,2.7c-3.6-0.5-3.9-0.4-1.8,0.5
	c4.4,1.8,0.8,3.6-7.3,3.5c-6.5-0.1-7,0.1-4.9,1.3c1.6,0.8,4.4,1.1,8.1,0.8c4-0.4,6.5-0.1,8.3,1c1.4,0.8,2.6,1.5,2.6,1.6
	c0,0,2.8-1.4,6.1-3.1s6.7-3.1,7.5-3.1s4.1-1.4,7.3-3.1c3.3-1.7,6.9-3.1,8.2-3.1c5.2,0,18-3.6,25.8-7.4L325.1,51.3z"/>
<path class="st1" d="M475.7,250.5c-5.2,2.8-6.9,3.2-10.4,2.6c-2.3-0.4-5.1-1.3-6.2-2.1c-2.9-2-3.2-1.9-5.7,2.1c-1.3,2-4.5,5-7.3,6.8
	c-5.2,3.3-8.4,8.6-8.4,13.9c0,2.4-7.1,10-9.3,10c-2,0-9.3,8.6-12.6,14.8c-1.9,3.5-4.5,7.9-5.9,9.7c-3.6,4.8-4.7,9.4-3,12.7
	c3.6,6.9,2.5,18-2.1,23.1c-1.5,1.7-1.5,2.1,0.5,5.5c1.4,2.4,1.7,3.7,0.9,3.7s-0.7,0.4,0.3,1c1.3,0.8,1.3,1-0.3,1
	c-2.6,0.1-2.3,2.2,0.3,2.9c1.7,0.5,1.9,0.8,0.8,1.5c-1,0.7-0.8,1,0.9,1.5c2.7,0.7,10.6,11,11.9,15.4c1.7,5.7,13.3,16.1,20,18
	c3.2,0.9,5.4,0.7,11.4-0.9c5.8-1.6,8.2-1.8,11-1c3,0.9,5,0.6,11.9-1.7c3.4-1.1,6.9-2.3,8.9-3V247C481,247.9,478.5,249,475.7,250.5z"
	/>
<path class="st1" d="M413.5,98.2c-0.9-1-2.4-1.3-5.1-0.8c-4.2,0.7-7-1.3-3.1-2.3c1.7-0.5,1.9-0.9,1-2c-2.3-2.9,2.1-2.9,6.2,0
	c3,2.1,4.5,2.6,6.3,1.9l2.4-0.9l-2.6-2c-1.5-1.1-4.2-2.8-6-3.8c-3.9-2.2-3.4-3.2,1.7-3.4c4.5-0.2,13.7-4.4,14.4-6.7
	c0.3-1,1.9-3.1,3.6-4.7c2.3-2.2,2.8-3.4,2.1-4.7c-1.7-3,4.6-7.9,11.4-8.8c3.2-0.4,6.7-1.5,7.8-2.3c1.9-1.3,1.4-1.4-4.8-0.8
	c-5.8,0.6-7.6,0.3-11-1.4c-5.7-3-20.4-4.8-26.1-3.3c-2.4,0.6-6.7,0.9-9.7,0.5c-3.5-0.4-10,0.1-18.8,1.6c-9.5,1.6-16.9,2.2-24.9,2
	c-25.4-0.6-26.2-0.5-36.9,4c-6.9,3-12.4,4.5-18.6,5.3c-4.8,0.6-9,1.1-9.3,1.1s-0.6,1.2-0.7,2.6c-0.2,3.4,2,4,13.8,4.1
	c8.7,0.1,9.8,0.3,12.3,2.7c3.5,3.2,6.9,9.8,6.2,11.7c-0.4,0.9,0.4,1.9,1.9,2.6c2.9,1.3,4.4,6.6,2.7,9.7c-0.6,1.1-3.3,3.4-6,5.1
	c-5.8,3.5-8,7.3-6.3,10.5c0.8,1.6,0.8,2.9-0.1,5.1c-1.9,4.6,1.2,10.1,7.8,13.7c2.8,1.5,5.9,2.8,6.6,2.8c3.2,0,6.2-2.7,11.3-9.9
	c6.3-9,9.8-11.3,20.3-13.3c5-1,9.3-2.5,11.3-4c6.2-4.7,10.4-6.4,16.2-6.5c3.2-0.1,9.8-1,14.8-2C413.2,100,414.5,99.4,413.5,98.2z"/>
<path class="st1" d="M235.9,80c6.8,0.6,13.1,1.1,14,0.9c0.9,0.1,3.2-0.7,5.2-1.8l3.6-1.9l-2.9-0.7c-1.6-0.4-6.3-0.5-10.4-0.2
	c-6,0.4-8.1,0.2-11.4-1.5s-4.5-1.8-6.9-0.8c-2.5,1-4.8,3.8-3.9,4.7C223.3,78.9,229.1,79.5,235.9,80z"/>
<path class="st1" d="M449.5,163.7c-2.6,0.7-3.3,2.1-1.5,3.2c0.7,0.4,0.5,1.7-0.5,3.6c-0.9,1.7-1.3,3.8-0.9,4.7
	c0.4,1.1,1.3,1.4,2.3,1c0.9-0.4,3.7-1.5,6.1-2.3c3.7-1.3,4.4-2,4.4-4.3c0-1.6,0.7-3.8,1.6-5.1c0.9-1.2,1.4-2.7,1-3.3
	c-0.9-1.6-7.3-1.3-8.7,0.4C452.6,162.4,450.9,163.3,449.5,163.7z"/>
<path class="st1" d="M239,64c4.1,0.9,5.6,0.7,9.4-1.5c3.6-2.1,3.7-2.3,1.9-3.7c-2.3-1.7-7.4-1-12.8,1.8C233.8,62.5,234,62.9,239,64z
	"/>
<path class="st1" d="M274.6,186.5c-4-0.8-5.5-3.5-3.3-5.9c1-1,1.2-1.8,0.5-1.8c-0.6,0-4.4,3.2-8.4,7.2l-7.3,7.2l3.9,0.4
	c7.8,0.9,12.3,0.8,16-0.3c3.6-1,3.8-1.3,2.7-3.6C278,188.2,276.3,186.9,274.6,186.5z"/>
<path class="st1" d="M266.4,195.4c-0.5,0-1,0.7-1,1.6c0,0.8,0.2,1.5,0.4,1.6c0.2,0,0.7-0.7,1-1.6C267.1,196.1,267,195.4,266.4,195.4
	z"/>
<path class="st1" d="M215.7,82.8c-4.3-1.3-14.5,2.4-13,4.8c0.4,0.6,1.5,0.8,2.4,0.3c1-0.4,3.7-1.1,6.2-1.5
	C216.7,85.5,218.8,83.8,215.7,82.8z"/>
<path class="st1" d="M154.2,293.5c0.2-0.3,0.2-1.3-0.2-2.3c-0.4-0.9-0.9-1.5-1.2-1.2c-0.2,0.3-0.2,1.3,0.2,2.3
	C153.3,293.3,153.9,293.8,154.2,293.5z"/>
<path class="st1" d="M199.6,328.9c-0.9,0.3-1.6,0.8-1.6,1c0,0.2,0.7,0.4,1.6,0.4c0.9,0,1.6-0.5,1.6-1S200.5,328.6,199.6,328.9z"/>
<path class="st1" d="M161.4,314.7c1.2,0,2.3-0.4,2.3-1c0-1.3-1.1-1.3-3.1,0C159.4,314.5,159.5,314.7,161.4,314.7z"/>
<path class="st1" d="M149.1,301.7c0.3-0.4,0.1-0.9-0.6-1.1c-0.7-0.3-1-1.4-0.7-2.5c0.3-1.1,0.1-2-0.5-2c-1.8,0-2.1,2.5-0.4,4.4
	C147.8,301.5,148.8,302,149.1,301.7z"/>
<path class="st1" d="M146.9,293c0.3,0,1.1-0.7,2-1.6c1.4-1.4,1.4-1.6-0.4-1.6c-1.1,0-2,0.7-2,1.6C146.5,292.3,146.7,293,146.9,293z"
	/>
<path class="st1" d="M210.9,117.6c-3.8-1.3-5.9-0.6-9.1,2.9c-2.5,2.8-0.8,3.7,4.1,2.4c2.9-0.8,4.5-0.7,6.5,0.4
	c2.3,1.2,2.8,1.2,3.5-0.1C217.1,121.1,215.2,119,210.9,117.6z"/>
<path class="st1" d="M199.3,82.4c-2.7,0-9.3,2.6-10,3.8c-0.6,1.1-2,1.3-4.7,0.9l-3.8-0.6l2.9,1.6c1.6,0.9,2.9,2,2.9,2.6
	c0,3.1,9.8-1.2,11.9-5.2C199.4,83.8,199.7,82.4,199.3,82.4z"/>
<path class="st1" d="M206.8,336.1c-0.9-0.4-1.4-0.2-1,0.4c0.3,0.6,1.1,1.1,1.6,1C208.9,337.5,208.6,336.8,206.8,336.1z"/>
<path class="st1" d="M171,324.1c-4.9,0-5.2,0.1-4.2,2c1.4,2.6-0.1,3.5-5.6,3.4c-3.7-0.1-3.9,0-1.7,0.9c1.4,0.6,3.8,0.7,5.4,0.4
	c1.6-0.4,3.7-0.2,4.6,0.3c1.9,1,15.2-1.7,14.4-2.9C182.7,326.3,175.8,324.1,171,324.1z"/>
<path class="st1" d="M148.8,330.8c-2.2-1.7-6.8-2.1-6.8-0.6c0,0.5,0.6,1.2,1.3,1.5s2.7,0.5,4.4,0.6
	C150.7,332.3,150.7,332.2,148.8,330.8z"/>
<path class="st1" d="M192.4,329.3c-2.7,0-4.2,1.3-3,2.5c1.1,1.1,4.7,0.2,5.2-1.2C194.9,329.8,194,329.3,192.4,329.3z"/>
<path class="st1" d="M180.3,356.9c0,0.6,0.3,1.4,0.7,1.8c0.4,0.3,1,0.4,1.2,0.2c0.3-0.3,0-1.1-0.7-1.8
	C180.8,356.3,180.3,356.2,180.3,356.9z"/>
<path class="st1" d="M175.7,356.3c-0.3,0-0.5,0.4-0.5,1c0,0.5,0.5,1,1.1,1s0.9-0.5,0.5-1S176,356.3,175.7,356.3z"/>
<path class="st1" d="M153.2,316.5c-11.1-6-14.3-7.2-20-7.6c-5.9-0.5-14.2,1.9-14.2,4.1c0,1.1,0.4,1.1,5.1-0.8c5-2,9.2-1,16.7,3.8
	c3.9,2.4,5,3.7,4.2,4.6c-0.8,0.9-0.1,1.3,3.2,1.3c2.4,0,4.6,0.3,4.9,0.6c0.8,0.7,3.1,0.6,6.3-0.2
	C162.4,321.4,162.4,321.4,153.2,316.5z"/>
<path class="st1" d="M169.5,311.3c1.4-0.1,2.6-0.5,2.6-0.9c0-1.1-3.9-1-4.6,0.1C167.1,311,168,311.3,169.5,311.3z"/>
<path class="st1" d="M5.2,159.9c1.1,1.3,1.4,1.2,2.2-0.7c1.3-2.8,0.2-3.9-1.9-2.2C4.2,158.1,4.2,158.7,5.2,159.9z"/>
<path class="st1" d="M5.1,151.7c1.4-2.2,1.1-3.3-0.6-1.9c-0.8,0.7-1.3,1.7-0.9,2.3C4,152.7,4.6,152.6,5.1,151.7z"/>
<path class="st1" d="M481.4,167.6c-2.8-6.1-5.5-9.6-8.3-10.7l-2.6-1l2.3-2.5l2.3-2.5l-2.4-0.4c-1.4-0.2-2.3-0.9-2.2-1.6
	c0.2-0.7-0.1-1.3-0.5-1.3c-2.9,0-5.9,5.4-4.6,8c0.5,1,0.8,2.4,0.5,3.1c-0.5,1.3,0.8,1.8,3.6,1.4c1.2-0.1,3.4,3.9,3.4,6.3
	c0,0.6-1.4,1.5-3.1,2.1c-1.7,0.6-2.8,1.6-2.4,2.2c0.4,0.6-0.2,1.7-1.2,2.5c-1.8,1.3-1.7,1.5,1.4,2.1c4.4,0.9,5,2.2,1.5,3.5
	c-1.6,0.6-3.9,1.5-5,2.1c-1.6,0.8-1.2,0.9,1.5,0.3c2-0.3,7.3-1.2,11.7-1.8c3-0.4,4.9-0.7,6-1.1v-7.7
	C482.7,170.1,482.1,169.1,481.4,167.6z"/>
<path class="st1" d="M211,335.5c0.3,0,0.5-0.5,0.5-1s-0.5-1-1.1-1c-0.6,0-0.9,0.4-0.5,1C210.3,335,210.7,335.5,211,335.5z"/>
<path class="st1" d="M479.6,186.9c-0.6-0.4-2.3,0.2-3.8,1.2s-4.4,1.9-6.4,1.9c-5.3,0.1-5.2,2,0.2,4.1c3.7,1.4,4.9,2.5,5.8,5.2
	c1.3,4.2,0.3,11.6-1.9,13.8c-1.7,1.6-8.6,1.5-20.5-0.3c-5.1-0.8-8.2,1.5-7.2,5.4c0.4,1.4-0.1,5.5-0.9,9.1c-2,8.5-1.5,14.5,1.1,14.9
	c5.1,0.8,6.5,1.4,9,3.9c2.6,2.6,2.7,2.6,3.8,0.5c0.8-1.6,2.1-2.1,5.3-2.1c2.3,0,5.2-0.6,6.4-1.2c3.9-2,8-6.4,8-8.6
	c0-2.2,3.4-8.6,4.8-8.9V186C481.8,186.9,480.3,187.3,479.6,186.9z"/>
<path class="st1" d="M7.2,186.2c1.8,1.7,4.1,3,5.2,3c2.3,0,2.4-0.2,0.8-3.6c-1.5-3.2-5.5-5.9-7.6-5.1C3.2,181.4,3.6,182.8,7.2,186.2
	z"/>
<path class="st1" d="M185.7,99.5c-1.3-0.4-3.7-0.2-5.4,0.5c-2.5,1-2.8,1.6-1.9,2.7c1.5,1.8,1.7,1.8,6.1-0.6
	C187.9,100.3,187.9,100.2,185.7,99.5z"/>
<path class="st1" d="M465.4,98.9c1.2,0,2.3-0.4,2.3-1c0-1.3-1.1-1.3-3.1,0C463.4,98.7,463.5,98.9,465.4,98.9z"/>
<path class="st1" d="M1,284.7c-1.4,2.7-0.6,4.5,3.2,7.3c2.5,1.9,3,2.9,2.5,4.9c-0.5,1.9,0.2,3.5,2.6,6.6c4.1,5.2,5.8,5.3,3.2,0.2
	c-1.1-2.1-2.4-6.2-2.8-9c-0.4-2.8-2.1-7.9-3.7-11.4c-4-8.5-4.5-11.1-2.7-13.5c1.3-1.7,1.9-1.8,4.1-0.8c2.1,0.9,2.7,2.2,3.3,6.3
	c0.4,3.2,2.2,7.6,4.7,11.7c2.2,3.6,3.8,6.9,3.5,7.4s1.3,2.9,3.5,5.3c2.2,2.4,5.1,6.6,6.4,9.3c2.1,4.3,2.3,5.5,1.3,9.3
	c-1.1,4.2-1,4.5,2.2,7.9c2.1,2.1,8.7,6.1,17.2,10.2l13.8,6.7l4.5-1.7c4.1-1.5,4.8-1.6,7.6-0.1c1.7,0.9,4.1,3.1,5.4,4.9
	c1.3,1.9,4.7,4.3,7.9,5.7c6.2,2.7,8.7,3,10.4,1.3c0.8-0.8,1.4-0.1,2.3,2.5c0.6,1.9,2.1,4.4,3.2,5.4s2,2.9,2,4.2s0.6,2.8,1.3,3.4
	c0.7,0.6,3.2,2.7,5.6,4.7c2.3,2,4.8,3.7,5.4,3.7c0.7,0,3.1,1,5.4,2.2c4.4,2.2,5.7,2,5.7-1c0-2.5,5-4,8.3-2.5c2.3,1,2.5,1.5,1.6,3.3
	c-0.6,1.2-0.7,2.1-0.2,2.1s0.9,0.6,1,1.3c0.1,0.8,0.7,3.4,1.3,6c1.7,6.7,0,12.6-6.1,20.2c-9.1,11.5-11.3,18.3-6.2,19.6
	c2.1,0.6,2.1,0.8-1,5.2c-2.9,4.1-3.1,5-2.2,8.3c0.6,2,2.2,4.4,3.6,5.3c2.7,1.7,6.6,8.6,8.8,15.4c0.7,2.1,3,6.1,5.1,8.8
	c2.1,2.7,5.1,7.6,6.7,10.9c2.6,5.4,3.5,6.3,10.2,9.8c9.4,4.9,17,12.3,18.6,18.2c0.6,2.4,1.1,7.3,1,10.9c-0.5,16.7,0.5,35.1,2.5,44.9
	c1.3,6.7,1.6,11.4,1.1,19.1c-0.4,7.1-0.2,10.7,0.6,11.7c0.7,0.8,1.3,3.5,1.4,6.1c0.2,3.9,0.9,5.3,4.6,9.1c2.9,2.9,4.1,5,3.7,6.1
	c-0.4,0.9,0.3,3,1.5,4.7c2.5,3.6,2,9-1.1,10c-2.7,0.8-2.5,1.7,1,3.7c1.9,1.1,3.6,3.4,4.8,6.7c2.5,6.6,6.8,13.7,8.9,14.4
	c0.9,0.4,2.2,1.8,3,3.2c1,1.8,2,2.4,3.3,2c1.1-0.3,2.7-0.2,3.7,0.4c2.5,1.4,8.2-2.5,6.5-4.8c-1.9-2.2-1.5-6.9,0.9-11.6
	c2.3-4.7,1.8-8.8-1.3-10c-0.9-0.4-2.3-1.8-3.3-3.3c-1.6-2.5-1.6-2.8,1-6.2c1.6-2.1,2.5-4.2,2.1-5.2c-0.4-0.9,0.1-2.5,1.1-3.6
	c1.7-1.8,1.6-2-0.4-2.6c-1.2-0.3-2.9-2.1-3.8-3.8c-2.2-4.3-0.7-5.8,3.7-3.5c1.8,1,3.4,1.6,3.6,1.4c1.9-2.3,2.6-5.3,1.6-7.1
	c-1.6-3-0.4-4.1,4.2-4.1c5.2,0,10.8-2.7,12.3-5.9c0.9-2.1,0.7-3.3-1.1-7c-1.2-2.5-3.3-5-4.7-5.6c-1.4-0.6-2.5-1.6-2.5-2.2
	c0-1.5,2.9-1.3,8.5,0.7c6.4,2.3,9.1,0.9,13.5-6.9c1.8-3.2,4.4-7.2,5.7-9c1.3-1.7,2.4-4.3,2.4-5.7s0.7-3.6,1.6-4.9
	c2.8-4,3.7-8.7,2.4-12.6c-1.2-3.4-1.1-3.7,2.3-6.6c1.9-1.7,5.4-3.9,7.8-4.9c2.3-1.1,4.6-2.4,5-3.1c0.4-0.7,2.2-1,4.5-0.6
	c2.9,0.5,4.4,0.1,6.2-1.4c5.5-4.7,11.2-26.4,10-38.1c-0.7-6-0.5-6.6,2-9.1c1.5-1.5,3.5-4.2,4.4-6c0.9-1.8,3.2-5.2,5.1-7.5
	c4.4-5.4,6-11.1,4.6-16.2c-1-3.5-1.6-4-6.8-5.5c-3.9-1.1-7-2.9-9.8-5.7c-3.7-3.7-4.7-4.1-12.5-5.2c-7.3-1-8.8-0.9-11,0.5
	c-2.7,1.8-3.6,1-3.2-3c0.1-1.4-1.1-2.7-4.3-4.5c-4.8-2.7-6.1-2.5-11.6,1.9c-2.1,1.7-3.2,1.9-5.2,1.1c-1.5-0.6-1.8-1.1-0.9-1.1
	c0.9,0,2.6-1.1,3.9-2.5c2.1-2.2,2.2-2.5,0.6-4.1c-2.6-2.6-4.3-2.1-9.4,2.6c-3.5,3.2-5,4-5.9,3.1c-0.9-0.9-0.2-2.2,3-5.2
	c4.9-4.7,7.2-8.5,5.7-9.4c-0.6-0.3-1.6-2.7-2.3-5.3c-2.3-8.6-12-15.7-19.1-13.9c-3.4,0.9-11.2-2.7-13.7-6.3
	c-5.1-7.5-18.8-15.9-23.9-14.6c-3.3,0.9-14.9-2.3-17.1-4.6c-3-3.2-5.7-3.4-9.1-0.9c-3.3,2.4-3.9,3.9-2.1,5.7
	c0.7,0.7,0.5,1.8-0.9,3.5c-2,2.4-2,2.4-3.1,0.4c-1.3-2.4-0.2-10,1.8-12.4c2.3-2.8-2.5-1.9-5.2,1c-1.4,1.4-3.4,2.6-4.6,2.6
	c-2.8,0-6.2,2.8-8.2,6.8c-0.9,1.8-2.7,3.9-4,4.8c-2.2,1.4-2.6,1.4-5.5-0.9c-3.6-2.8-6.4-3-11.5-0.9c-3.2,1.3-4,1.3-6.6,0
	c-1.6-0.9-4-3.2-5.2-5.2c-2.2-3.6-2.2-3.8-0.7-13.6c0.8-5.4,1.3-10.5,1-11.3c-0.8-1.9-7.1-2.7-14.1-1.7c-7.6,1.1-8,0.3-3.5-9.4
	c6.5-14.1,7.1-15.6,5.6-16.5c-1.8-1.1-3.7-1.1-8.3,0.2c-3,0.8-4.1,1.7-5,4.6c-1.4,4.5-5.5,7.5-12.2,8.9c-8.9,1.9-13.2-1.6-16.3-13.5
	l-1.7-6.5l3.3-10c1.9-5.5,3.8-11.2,4.3-12.7c0.6-1.6,3-3.6,6.4-5.4c3-1.6,7-3.8,9-4.9c4.3-2.4,6.4-2.5,10.2-0.6
	c1.6,0.8,4.2,1.7,6,2.1c2.7,0.6,3.3,0.4,4.3-1.8c0.7-1.4,2.7-3,4.7-3.7c3-0.9,4.3-0.8,8.5,1c2.7,1.2,5.9,1.9,7,1.5
	c1.3-0.4,2.9,0.2,4.6,1.8c2.1,2,2.4,3.1,1.9,5.9c-0.7,4.1,2,13.2,4.2,14.1c0.9,0.4,2-0.5,3-2.4c1.3-2.5,1.4-4.4,0.4-12
	c-1.1-8.2-1-9.4,0.7-12.6c1.9-3.6,11.5-11,18.2-14.2c6.6-3.1,9.6-7.1,9.7-13c0.1-5.8,2.1-9.1,3.4-5.7c0.7,1.8,0.8,1.7,1.4-0.6
	c0.3-1.4,2.2-3.6,4.2-4.8c2-1.3,4.8-3.5,6.3-5s4.8-3.3,7.3-4.1c7.9-2.4,10.1-3.8,10.8-6.8c0.6-2.5,2.2-3.5,11.4-7.6
	c6-2.6,12.4-5,14.4-5.4c5.1-1,5.8,1.1,1.1,3.1c-5.3,2.3-7,3.8-5.4,4.8c0.7,0.4,3.4-0.3,6-1.6c2.6-1.3,6.2-2.7,7.9-3.1
	c1.7-0.4,4.5-1.6,6.2-2.8l3.1-2.1l-4,0.7c-5.1,0.9-9.4-0.8-11-4.4c-1-2.4-0.9-3,0.8-4.4c1.1-0.9,2.5-2.6,3.2-3.9
	c1.2-2.2,1-2.3-2.7-2.3c-2.2,0-6.7,1.3-10.3,3c-6,2.9-7.6,3-7.6,0.9c0-0.5,4.1-2.9,9.1-5.3c8.5-4,9.7-4.3,18.4-4.4
	c11.9-0.1,15.9-0.9,25-5.2c8.3-3.9,10.9-7.4,7.8-10.2c-2.1-1.9-5.6-2.1-8.6-0.5c-3,1.6-4.8-0.5-2-2.4c2.1-1.5,2.1-1.5-0.3-5.7
	c-1.7-2.9-2.2-4.7-1.5-5.9c0.6-1,0.6-2.5-0.1-3.7c-0.6-1.2-0.8-2.7-0.5-3.5c0.3-0.8,0.2-2.4-0.3-3.7l-0.8-2.3l-3.6,2.7
	c-2,1.4-5.3,3.5-7.4,4.6l-3.8,1.9l-2.3-2.4c-1.9-2.1-2.1-2.9-1.1-4.7c0.7-1.3,0.9-3.1,0.6-4.1c-0.8-2.5-7.3-6-12.8-6.9
	c-6.2-1-9.9,0.7-12.2,5.8c-1,2.3-3.2,5.1-4.9,6.3c-2.7,1.9-3,2.6-2.4,5.7c0.9,4.7-2.4,8.9-10.4,13.2c-5.5,2.9-6.3,3.8-8.2,8.8
	c-2,5.2-5.2,8.3-8.6,8.4c-0.7,0.1-2-1.3-2.9-3c-1.4-2.9-1.4-3.5,0.5-8.3c2.2-5.6,2.1-5.7-2.6-6.7c-1.7-0.3-5.9-2-9.3-3.7
	c-3.4-1.6-7.5-3.3-9.1-3.6c-1.8-0.4-3.3-1.6-4.1-3.4c-0.7-1.6-1.9-3.2-2.6-3.7c-3.9-2.5,6.8-11.7,19.4-16.9c3.9-1.6,5.7-2.9,5.7-4.2
	c0-1.5,1-1.9,4.7-2c2.6,0,6.7-0.7,9.2-1.4l4.5-1.3l-2.3-2.4c-2.7-2.8-1.4-4.2,2.3-2.5c2,0.9,3.2,0.8,5.7-0.5c1.8-1,5.7-1.7,9-1.7
	c6.8,0,9.1-1,13.7-6c3.8-4.2,4-4.9,1.7-5.8c-3.5-1.3-7.3-0.5-9.8,2.1c-6,6.5-15,8.2-11,2.1c1.5-2.2,1.5-2.6,0.2-3.1
	c-0.8-0.3-2.2-0.3-3,0c-2.2,0.9-4-3.2-2.6-5.9c0.8-1.6,0.8-2.4,0-3.3c-0.8-0.9-2.8-0.4-7,1.7c-5.7,2.8-5.8,2.9-3.6,4.4
	c3,2.2,1.3,5.2-3.8,6.6c-2.1,0.6-5,2-6.4,3.1c-2.5,1.9-2.6,1.9-5.4-0.1c-2.3-1.6-3.9-1.9-7.3-1.4c-2.7,0.4-6.3,0-9.3-0.9
	c-4.2-1.3-5.5-1.3-9.8,0c-2.8,0.9-5.8,2.7-7.1,4.3l-2.2,2.8l-1.7-3.3c-1.7-3.3-1.7-3.3-7.8-2.7c-3.3,0.3-7,0.3-8-0.1
	c-1.8-0.7-1.8-0.8,0.1-2.2c2-1.5,1.9-1.5-0.3-1.5c-1.3,0-5.3-1-8.8-2.2c-4.7-1.6-7.9-2-11.5-1.6c-3.4,0.4-5.9,0.1-8-1
	c-2.3-1.2-3.5-1.3-5.1-0.4c-1.2,0.6-3,0.8-4.1,0.5c-1-0.3-5.6,0.3-10.2,1.5c-10.3,2.6-16.3,2.6-25.6,0.1c-4-1.1-10.1-2.3-13.5-2.7
	S25.1,96,20.1,95.2c-7.7-1.2-10.2-1.3-19.8,0v45.6c0,0,0.1,0,0.1,0.1c1.8,1.4,5,3.2,7.1,4.1c3.9,1.6,5,3.8,4.7,9
	c-0.1,3.3,0.5,5.5,1.8,6.5c0.5,0.5,0.3,0.8-0.7,0.8c-2.3,0-4.5,5.5-3.1,8c0.8,1.4,0.7,2.3-0.5,3.6c-1.4,1.6-1.2,2.2,3.2,6.4
	c2.7,2.6,4.8,5.3,4.8,6.2c0,0.9,0.5,1.7,1,1.9s-0.3,2.2-1.9,4.5c-2.7,3.9-5,4.8-4.7,1.8c0.1-0.7-0.9-1.3-2.1-1.3
	c-1.7,0-2.8,1.4-4.7,5.8c-1,2.4-3,5.6-5,8.3v72.9C1.5,282.1,1.7,283.5,1,284.7z M181,209.7c1.5,0.9,1.5,1.2-0.7,2.7
	c-3.1,2.1-8.2,2.3-8.2,0.2C172.1,210.6,178.8,208.4,181,209.7z M161.9,220.2c-2.4,1.2-5.2,2.2-6.4,2.2c-3.8,0-2.3-3,2.7-5.2
	c4.3-1.9,5.1-2,6.4-0.7C165.9,217.8,165.6,218.3,161.9,220.2z M131.8,195.2c1.4-1.1,2.9-2,3.4-2c0.4,0,0.5-0.5,0.2-1
	c-0.4-0.5,0.2-0.9,1.2-0.9c1,0.1,3.9-0.5,6.5-1.2c7.1-2,10.4-1.7,12.5,1.1c1,1.4,1.6,3.4,1.3,4.6c-0.8,3.2,2.9,6.2,5.7,4.7
	c3.9-2.1,9.3,2.7,7.2,6.5c-0.7,1.3-1.7,1.6-3.4,1.2c-1.8-0.5-2.6-0.1-3.1,1.4c-0.4,1.2-1.8,2.6-3.2,3.2c-2,1-2.9,0.8-4.7-0.6
	l-2.2-1.8l2.2-2.7c2.7-3.5,2.7-4-0.3-4c-4.2,0-9.3,4.3-12.1,10.1c-1.4,3-3.6,6.2-4.6,6.7c-2,1.4-2.4,1.4-3.8-0.2
	c-1.5-1.6-1.3-2.3,2.4-8.5c4.4-7.3,7.5-9.9,13.6-10.9c2.2-0.4,3.7-1.1,3.3-1.7c-0.4-0.5-1.8-0.7-3.1-0.4s-4-0.2-5.9-1.1
	c-3.2-1.5-3.7-1.5-6.7,0c-2.5,1.3-3.8,1.5-6.1,0.6l-2.9-1.1L131.8,195.2z"/>
<path class="st1" d="M167,93.8l2-3.4c1.2-1.8,2.1-3.7,2.1-4.1c0-1.8-3.9-0.6-6.2,1.8c-2.5,2.7-4.6,2.9-4.8,0.7
	c-0.1-0.7-0.2-1.8-0.3-2.4c0-0.7-1-0.6-2.6,0.5c-2.2,1.5-3,1.5-7.8,0.1c-5.9-1.8-12.5-1.3-18.7,1.4c-3.6,1.5-3.6,1.6-1.1,2.2
	c3.6,0.9,3.3,2.5-0.5,3.1c-2.3,0.3-1.4,0.6,3.1,1c3.4,0.3,6.2,1,6.2,1.6c0,0.6-3.2,1.3-7.2,1.6l-7.2,0.5l5.1,2.3
	c2.8,1.3,6.3,2.5,7.7,2.7c5.1,0.8,6.1,0.7,11-1.5c4.4-1.8,5.6-1.9,9.9-0.9c4.4,1.1,5.4,1,10.4-1.3l5.5-2.5l-3.3-1.7L167,93.8z"/>
<path class="st1" d="M145.6,83.7l-4.7-1.4c-8.5-2.5-13.2-1.8-22.6,3.3c-8,4.4-8.4,4.7-6.7,6.4c1,1,2.5,1.5,3.4,1.1
	c8.5-3.6,19.3-7.2,24.4-8.2L145.6,83.7z"/>
<path class="st1" d="M466.7,165.4c0.5,0,1-0.5,1-1.1c0-0.6-0.4-0.9-1-0.5c-0.5,0.4-1,0.8-1,1.1C465.7,165.1,466.1,165.3,466.7,165.4
	z"/>
<path class="st1" d="M466.2,128c-0.9,0-1.6,0.4-1.6,0.9c0,0.4,0.7,0.9,1.6,0.9c0.9,0,1.6-0.4,1.6-0.9S467.1,128,466.2,128z"/>
</svg>
