<?xml version="1.0" encoding="utf-8"?>
<!-- Generator: Adobe Illustrator 24.0.0, SVG Export Plug-In . SVG Version: 6.00 Build 0)  -->
<svg version="1.1" id="Layer_1" xmlns="http://www.w3.org/2000/svg" xmlns:xlink="http://www.w3.org/1999/xlink" x="0px" y="0px"
	 viewBox="0 0 1349 537" style="enable-background:new 0 0 1349 537;" xml:space="preserve">
<style type="text/css">
	.st0{fill:#060B35;}
	.st1{fill:#5C5C5C;}
</style>
<rect x="-10.4" y="-9.6" class="st0" width="1370.6" height="556.9"/>
<g id="layer1" transform="translate(275.17606,-309.45844)">
	<path id="path2830" class="st1" d="M23.3,885.3c-5.3-2-6.7-3.9-5.5-7.2c0.6-1.5,1.7-2.8,2.5-2.8s4.2,1.8,7.6,4s7.6,4.5,9.2,5.1
		l3.1,1.1l-3.8,0.1c-2.1,0-5.1,0.3-6.7,0.5C28.1,886.4,25.2,886,23.3,885.3L23.3,885.3z M11.4,875.2c-1-0.6-2.6-0.7-3.7-0.4
		c-1.3,0.4-2.3-0.2-3.3-2c-0.8-1.4-2.1-2.8-3-3.2c-2.1-0.7-6.4-7.8-8.9-14.4c-1.2-3.3-2.9-5.6-4.8-6.7c-3.5-2-3.7-2.9-1-3.7
		c3.1-1,3.6-6.4,1.1-10c-1.2-1.7-1.9-3.8-1.5-4.7c0.4-1.1-0.8-3.2-3.7-6.1c-3.7-3.8-4.4-5.2-4.6-9.1c-0.1-2.6-0.7-5.3-1.4-6.1
		c-0.8-1-1-4.6-0.6-11.7c0.5-7.7,0.2-12.4-1.1-19.1c-2-9.8-3-28.2-2.5-44.9c0.1-3.6-0.4-8.5-1-10.9c-1.6-5.9-9.2-13.3-18.6-18.2
		c-6.7-3.5-7.6-4.4-10.2-9.8c-1.6-3.3-4.6-8.2-6.7-10.9s-4.4-6.7-5.1-8.8c-2.2-6.8-6.1-13.7-8.8-15.4c-1.4-0.9-3-3.3-3.6-5.3
		c-0.9-3.3-0.7-4.2,2.2-8.3c3.1-4.4,3.1-4.6,1-5.2c-5.1-1.3-2.9-8.1,6.2-19.6c6.1-7.6,7.8-13.5,6.1-20.2c-0.6-2.6-1.2-5.2-1.3-6
		c-0.1-0.7-0.5-1.3-1-1.3s-0.4-0.9,0.2-2.1c0.9-1.8,0.7-2.3-1.6-3.3c-3.3-1.5-8.3,0-8.3,2.5c0,3-1.3,3.2-5.7,1
		c-2.3-1.2-4.7-2.2-5.4-2.2c-0.6,0-3.1-1.7-5.4-3.7c-2.4-2-4.9-4.1-5.6-4.7c-0.7-0.6-1.3-2.1-1.3-3.4s-0.9-3.2-2-4.2
		s-2.6-3.5-3.2-5.4c-0.9-2.6-1.5-3.3-2.3-2.5c-1.7,1.7-4.2,1.4-10.4-1.3c-3.2-1.4-6.6-3.8-7.9-5.7c-1.3-1.8-3.7-4-5.4-4.9
		c-2.8-1.5-3.5-1.4-7.6,0.1l-4.5,1.7l-13.8-6.7c-8.5-4.1-15.1-8.1-17.2-10.2c-3.2-3.4-3.3-3.7-2.2-7.9c1-3.8,0.8-5-1.3-9.3
		c-1.3-2.7-4.2-6.9-6.4-9.3c-2.2-2.4-3.8-4.8-3.5-5.3s-1.3-3.8-3.5-7.4c-2.5-4.1-4.3-8.5-4.7-11.7c-0.6-4.1-1.2-5.4-3.3-6.3
		c-2.2-1-2.8-0.9-4.1,0.8c-1.8,2.4-1.3,5,2.7,13.5c1.6,3.5,3.3,8.6,3.7,11.4s1.7,6.9,2.8,9c2.6,5.1,0.9,5-3.2-0.2
		c-2.4-3.1-3.1-4.7-2.6-6.6c0.5-2,0-3-2.5-4.9c-3.8-2.8-4.6-4.6-3.2-7.3c0.8-1.5,0.4-3.2-1.6-7.3c-2.1-4.2-2.5-6.2-2-9.3
		c0.9-5-1.4-9.6-5.6-11.4c-2.4-1-3.3-2.1-3.8-5.1c-0.4-2.1-1-5.3-1.5-7.1c-0.5-1.9-0.5-3.6,0.1-3.9c0.5-0.3,0.2-1.7-0.8-3.2
		c-1.4-2.1-1.5-3.1-0.5-5.2c0.7-1.4,0.9-3.1,0.6-3.7s0.5-2.3,2-3.8c1.4-1.5,3.3-4.6,4.2-6.7c0.9-2.2,3.7-6.2,6.2-9s5.6-7.6,7-10.8
		c1.9-4.4,3-5.8,4.7-5.8c1.2,0,2.2,0.6,2.1,1.3c-0.3,3,2,2.1,4.7-1.8c1.6-2.3,2.4-4.3,1.9-4.5s-1-1-1-1.9s-2.1-3.6-4.8-6.2
		c-4.4-4.2-4.6-4.8-3.2-6.4c1.2-1.3,1.3-2.2,0.5-3.6c-1.4-2.5,0.8-8,3.1-8c1,0,1.2-0.3,0.7-0.8c-1.3-1-1.9-3.2-1.8-6.5
		c0.3-5.2-0.8-7.4-4.7-9c-2.1-0.9-5.3-2.7-7.1-4.1s-4.1-2.5-5.1-2.5s-5.5-0.9-10-2.1c-7.3-1.9-8.5-1.9-11.1-0.6
		c-5.2,2.7-10.7,3.8-13,2.6c-1.7-0.9-3.5-0.3-10,3c-4.3,2.3-9.5,4.5-11.5,4.9s-5.8,1.9-8.5,3.2c-7.6,3.8-18.5,7.7-21.5,7.6
		c-1.9,0-0.6-0.9,4.5-2.9c8.8-3.5,17.8-8,18.6-9.4c1-1.7-1.2-2.3-3.9-1c-2,0.9-3.2,0.8-5.5-0.4l-2.9-1.5l3.2-1.6
		c3.6-1.9,4.7-4,3.9-7.3c-0.8-3.2,3.6-5.5,13.1-7c5.1-0.8,9-2.1,11.6-3.8c4.6-3.1,3.8-5.5-1.2-3.5c-2.4,1-4.1,1-7.6,0
		c-4.2-1.1-4.4-1.3-2.5-2.7c3.2-2.3,9.7-3.7,14-3c2.7,0.5,5,0.1,7.3-1l3.3-1.7l-2.2-2.3c-1.2-1.3-2.2-2.6-2.2-2.9
		c0-1,6.2-2.9,9.4-2.9c1.6,0,5.8-1.1,9.5-2.5s12.1-3.3,18.8-4.2c10.8-1.5,13.1-1.5,21.2-0.2c5,0.8,11.9,1.8,15.3,2.2
		s9.5,1.6,13.5,2.7c9.3,2.5,15.3,2.5,25.6-0.1c4.6-1.2,9.2-1.8,10.2-1.5c1.1,0.3,2.9,0.1,4.1-0.5c1.6-0.9,2.8-0.8,5.1,0.4
		c2.1,1.1,4.6,1.4,8,1c3.6-0.4,6.8,0,11.5,1.6c3.5,1.2,7.5,2.2,8.8,2.2c2.2,0,2.3,0,0.3,1.5c-1.9,1.4-1.9,1.5-0.1,2.2
		c1,0.4,4.7,0.4,8,0.1c6.1-0.6,6.1-0.6,7.8,2.7l1.7,3.3l2.2-2.8c1.3-1.6,4.3-3.4,7.1-4.3c4.3-1.3,5.6-1.3,9.8,0
		c3,0.9,6.6,1.3,9.3,0.9c3.4-0.5,5-0.2,7.3,1.4c2.8,2,2.9,2,5.4,0.1c1.4-1.1,4.3-2.5,6.4-3.1c5.1-1.4,6.8-4.4,3.8-6.6
		c-2.2-1.5-2.1-1.6,3.6-4.4c4.2-2.1,6.2-2.6,7-1.7s0.8,1.7,0,3.3c-1.4,2.7,0.4,6.8,2.6,5.9c0.8-0.3,2.2-0.3,3,0
		c1.3,0.5,1.3,0.9-0.2,3.1c-4,6.1,5,4.4,11-2.1c2.5-2.6,6.3-3.4,9.8-2.1c2.3,0.9,2.1,1.6-1.7,5.8c-4.6,5-6.9,6-13.7,6
		c-3.3,0-7.2,0.7-9,1.7c-2.5,1.3-3.7,1.4-5.7,0.5c-3.7-1.7-5-0.3-2.3,2.5l2.3,2.4l-4.5,1.3c-2.5,0.7-6.6,1.4-9.2,1.4
		c-3.7,0.1-4.7,0.5-4.7,2c0,1.3-1.8,2.6-5.7,4.2c-12.6,5.2-23.3,14.4-19.4,16.9c0.7,0.5,1.9,2.1,2.6,3.7c0.8,1.8,2.3,3,4.1,3.4
		c1.6,0.3,5.7,2,9.1,3.6c3.4,1.7,7.6,3.4,9.3,3.7c4.7,1,4.8,1.1,2.6,6.7c-1.9,4.8-1.9,5.4-0.5,8.3c0.9,1.7,2.2,3.1,2.9,3
		c3.4-0.1,6.6-3.2,8.6-8.4c1.9-5,2.7-5.9,8.2-8.8c8-4.3,11.3-8.5,10.4-13.2c-0.6-3.1-0.3-3.8,2.4-5.7c1.7-1.2,3.9-4,4.9-6.3
		c2.3-5.1,6-6.8,12.2-5.8c5.5,0.9,12,4.4,12.8,6.9c0.3,1,0.1,2.8-0.6,4.1c-1,1.8-0.8,2.6,1.1,4.7l2.3,2.4l3.8-1.9
		c2.1-1.1,5.4-3.2,7.4-4.6l3.6-2.7l0.8,2.3c0.5,1.3,0.6,2.9,0.3,3.7c-0.3,0.8-0.1,2.3,0.5,3.5c0.7,1.2,0.7,2.7,0.1,3.7
		c-0.7,1.2-0.2,3,1.5,5.9c2.4,4.2,2.4,4.2,0.3,5.7c-2.8,1.9-1,4,2,2.4s6.5-1.4,8.6,0.5c3.1,2.8,0.5,6.3-7.8,10.2
		c-9.1,4.3-13.1,5.1-25,5.2c-8.7,0.1-9.9,0.4-18.4,4.4c-5,2.4-9.1,4.8-9.1,5.3c0,2.1,1.6,2,7.6-0.9c3.6-1.7,8.1-3,10.3-3
		c3.7,0,3.9,0.1,2.7,2.3c-0.7,1.3-2.1,3-3.2,3.9c-1.7,1.4-1.8,2-0.8,4.4c1.6,3.6,5.9,5.3,11,4.4l4-0.7l-3.1,2.1
		c-1.7,1.2-4.5,2.4-6.2,2.8s-5.3,1.8-7.9,3.1c-2.6,1.3-5.3,2-6,1.6c-1.6-1,0.1-2.5,5.4-4.8c4.7-2,4-4.1-1.1-3.1
		c-2,0.4-8.4,2.8-14.4,5.4c-9.2,4.1-10.8,5.1-11.4,7.6c-0.7,3-2.9,4.4-10.8,6.8c-2.5,0.8-5.8,2.6-7.3,4.1s-4.3,3.7-6.3,5
		c-2,1.2-3.9,3.4-4.2,4.8c-0.6,2.3-0.7,2.4-1.4,0.6c-1.3-3.4-3.3-0.1-3.4,5.7c-0.1,5.9-3.1,9.9-9.7,13c-6.7,3.2-16.3,10.6-18.2,14.2
		c-1.7,3.2-1.8,4.4-0.7,12.6c1,7.6,0.9,9.5-0.4,12c-1,1.9-2.1,2.8-3,2.4c-2.2-0.9-4.9-10-4.2-14.1c0.5-2.8,0.2-3.9-1.9-5.9
		c-1.7-1.6-3.3-2.2-4.6-1.8c-1.1,0.4-4.3-0.3-7-1.5c-4.2-1.8-5.5-1.9-8.5-1c-2,0.7-4,2.3-4.7,3.7c-1,2.2-1.6,2.4-4.3,1.8
		c-1.8-0.4-4.4-1.3-6-2.1c-3.8-1.9-5.9-1.8-10.2,0.6c-2,1.1-6,3.3-9,4.9c-3.4,1.8-5.8,3.8-6.4,5.4c-0.5,1.5-2.4,7.2-4.3,12.7
		l-3.3,10l1.7,6.5c3.1,11.9,7.4,15.4,16.3,13.5c6.7-1.4,10.8-4.4,12.2-8.9c0.9-2.9,2-3.8,5-4.6c4.6-1.3,6.5-1.3,8.3-0.2
		c1.5,0.9,0.9,2.4-5.6,16.5c-4.5,9.7-4.1,10.5,3.5,9.4c7-1,13.3-0.2,14.1,1.7c0.3,0.8-0.2,5.9-1,11.3c-1.5,9.8-1.5,10,0.7,13.6
		c1.2,2,3.6,4.3,5.2,5.2c2.6,1.3,3.4,1.3,6.6,0c5.1-2.1,7.9-1.9,11.5,0.9c2.9,2.3,3.3,2.3,5.5,0.9c1.3-0.9,3.1-3,4-4.8
		c2-4,5.4-6.8,8.2-6.8c1.2,0,3.2-1.2,4.6-2.6c2.7-2.9,7.5-3.8,5.2-1c-2,2.4-3.1,10-1.8,12.4c1.1,2,1.1,2,3.1-0.4
		c1.4-1.7,1.6-2.8,0.9-3.5c-1.8-1.8-1.2-3.3,2.1-5.7c3.4-2.5,6.1-2.3,9.1,0.9c2.2,2.3,13.8,5.5,17.1,4.6c5.1-1.3,18.8,7.1,23.9,14.6
		c2.5,3.6,10.3,7.2,13.7,6.3c7.1-1.8,16.8,5.3,19.1,13.9c0.7,2.6,1.7,5,2.3,5.3c1.5,0.9-0.8,4.7-5.7,9.4c-3.2,3-3.9,4.3-3,5.2
		s2.4,0.1,5.9-3.1c5.1-4.7,6.8-5.2,9.4-2.6c1.6,1.6,1.5,1.9-0.6,4.1c-1.3,1.4-3,2.5-3.9,2.5s-0.6,0.5,0.9,1.1c2,0.8,3.1,0.6,5.2-1.1
		c5.5-4.4,6.8-4.6,11.6-1.9c3.2,1.8,4.4,3.1,4.3,4.5c-0.4,4,0.5,4.8,3.2,3c2.2-1.4,3.7-1.5,11-0.5c7.8,1.1,8.8,1.5,12.5,5.2
		c2.8,2.8,5.9,4.6,9.8,5.7c5.2,1.5,5.8,2,6.8,5.5c1.4,5.1-0.2,10.8-4.6,16.2c-1.9,2.3-4.2,5.7-5.1,7.5s-2.9,4.5-4.4,6
		c-2.5,2.5-2.7,3.1-2,9.1c1.2,11.7-4.5,33.4-10,38.1c-1.8,1.5-3.3,1.9-6.2,1.4c-2.3-0.4-4.1-0.1-4.5,0.6c-0.4,0.7-2.7,2-5,3.1
		c-2.4,1-5.9,3.2-7.8,4.9c-3.4,2.9-3.5,3.2-2.3,6.6c1.3,3.9,0.4,8.6-2.4,12.6c-0.9,1.3-1.6,3.5-1.6,4.9s-1.1,4-2.4,5.7
		c-1.3,1.8-3.9,5.8-5.7,9c-4.4,7.8-7.1,9.2-13.5,6.9c-5.6-2-8.5-2.2-8.5-0.7c0,0.6,1.1,1.6,2.5,2.2c1.4,0.6,3.5,3.1,4.7,5.6
		c1.8,3.7,2,4.9,1.1,7c-1.5,3.2-7.1,5.9-12.3,5.9c-4.6,0-5.8,1.1-4.2,4.1c1,1.8,0.3,4.8-1.6,7.1c-0.2,0.2-1.8-0.4-3.6-1.4
		c-4.4-2.3-5.9-0.8-3.7,3.5c0.9,1.7,2.6,3.5,3.8,3.8c2,0.6,2.1,0.8,0.4,2.6c-1,1.1-1.5,2.7-1.1,3.6c0.4,1-0.5,3.1-2.1,5.2
		c-2.6,3.4-2.6,3.7-1,6.2c1,1.5,2.4,2.9,3.3,3.3c3.1,1.2,3.6,5.3,1.3,10c-2.4,4.7-2.8,9.4-0.9,11.6
		C19.6,872.7,13.9,876.6,11.4,875.2L11.4,875.2z M-65.1,425.8c2.8-5.8,7.9-10.1,12.1-10.1c3,0,3,0.5,0.3,4l-2.2,2.7l2.2,1.8
		c1.8,1.4,2.7,1.6,4.7,0.6c1.4-0.6,2.8-2,3.2-3.2c0.5-1.5,1.3-1.9,3.1-1.4c1.7,0.4,2.7,0.1,3.4-1.2c2.1-3.8-3.3-8.6-7.2-6.5
		c-2.8,1.5-6.5-1.5-5.7-4.7c0.3-1.2-0.3-3.2-1.3-4.6c-2.1-2.8-5.4-3.1-12.5-1.1c-2.6,0.7-5.5,1.3-6.5,1.2c-1,0-1.6,0.4-1.2,0.9
		c0.3,0.5,0.2,1-0.2,1c-0.5,0-2,0.9-3.4,2l-2.6,2l2.9,1.1c2.3,0.9,3.6,0.7,6.1-0.6c3-1.5,3.5-1.5,6.7,0c1.9,0.9,4.6,1.4,5.9,1.1
		c1.3-0.3,2.7-0.1,3.1,0.4c0.4,0.6-1.1,1.3-3.3,1.7c-6.1,1-9.2,3.6-13.6,10.9c-3.7,6.2-3.9,6.9-2.4,8.5c1.4,1.6,1.8,1.6,3.8,0.2
		C-68.7,432-66.5,428.8-65.1,425.8L-65.1,425.8z M-46.2,432.2c3.7-1.9,4-2.4,2.7-3.7s-2.1-1.2-6.4,0.7c-5,2.2-6.5,5.2-2.7,5.2
		C-51.4,434.4-48.6,433.4-46.2,432.2z M-27.8,424.4c2.2-1.5,2.2-1.8,0.7-2.7c-2.2-1.3-8.9,0.9-8.9,2.9
		C-36,426.7-30.9,426.5-27.8,424.4z M50.1,872.4c0-0.5,0.6-1.4,1.2-2.1c0.7-0.7,0.9-1.2,0.4-1.2s-1.4,0.8-2.1,1.7
		c-1,1.3-1.7,1.5-3.2,0.6c-1.1-0.6-1.4-1.2-0.6-1.2c0.7,0,1.1-0.5,0.7-1.1c-0.7-1.1,1.1-1.4,6.2-1c4.6,0.3,5,1,2.2,3.2
		C52.2,873.3,50.1,873.9,50.1,872.4L50.1,872.4z M916.5,846.4c-3-1.9,3.2-6,18.5-12.5c4.3-1.8,10.8-5.5,14.5-8.3
		c6.3-4.7,6.8-4.9,8-3.2c1.9,2.7,0.8,4.6-3.8,6.7c-2.2,1-5,2.9-6.2,4.3c-1.2,1.4-3.1,2.5-4.2,2.5s-3.8,1.6-6,3.5
		C930,846,920.8,849.1,916.5,846.4L916.5,846.4z M843.9,832.9c-1.1-0.7-1.1-1.4-0.3-3c0.6-1.2,1.1-3.6,1.1-5.4
		c0-2.9,0.2-3.2,2.3-2.4c1.3,0.5,4,0.9,6,1s4,0.2,4.4,0.3c1.7,0.3-2.9,5.6-7,8C845.6,834.2,845.8,834.1,843.9,832.9L843.9,832.9z
		 M963.8,823.8c-0.4-0.4,0.5-1.6,1.9-2.7c2.1-1.7,2.4-2.4,1.4-4.1c-1.3-2.5,0.7-5.2,5.3-7.1c3.6-1.5,4.5-4.5,3.5-11.7
		c-0.7-5-0.6-5.3,1-4c1.3,1,1.6,2.4,1.1,4.8c-0.5,2.6-0.1,4,2.1,6.6c2.4,2.8,3.1,3.1,4.9,2.1c1.8-1,2-0.9,1.5,0.6
		c-0.4,1-0.7,1.9-0.7,2.2s-1.5,1.2-3.4,2.1c-1.9,0.9-5.5,3.5-8,5.6c-4.2,3.4-8.5,6.2-9.6,6.2C964.6,824.5,964.1,824.2,963.8,823.8
		L963.8,823.8z M854.1,810.4c-2.2-2.3-2.6-2.4-4.7-1c-2.7,1.8-7.7,0.7-11.7-2.4c-2.1-1.7-2.3-2.2-1.2-4.3c0.9-1.8,1-3,0.1-4.9
		c-0.6-1.4-1.1-3.4-1.1-4.5c0-2.5-1.6-2.6-3-0.2c-0.6,1-1.3,1.5-1.7,1.1s0.8-2.4,2.7-4.5c4.5-5.1,2.7-6.5-3.2-2.5
		c-2.6,1.7-4.8,3.6-5,4.2c-0.2,0.6-1.4-1.2-2.7-4c-1.4-3-3.9-6-6.1-7.4c-3.3-2.2-4.4-2.4-10.7-1.7c-9.3,0.9-18.2,3.2-24.1,6.2
		c-2.7,1.3-7.9,2.7-11.9,3.1c-3.9,0.4-10.2,1.9-13.9,3.3c-5.7,2.1-7.3,2.4-10.1,1.4c-3.9-1.3-5.5-3.9-3-4.8c0.9-0.3,2.5-2.7,3.6-5.3
		c1.8-4.1,1.9-5.4,0.8-10.7c-0.9-4.4-0.9-8.5-0.1-15.3c0.6-5.1,0.8-10.3,0.5-11.5s0.2-4.2,1.1-6.7c1.6-4.3,2-4.6,13.2-9.3
		c6.3-2.7,12.8-4.9,14.4-4.9c4.3,0,9.6-4.1,12.5-9.6c1.8-3.4,3.1-4.7,4.1-4.3c3,1.2,3.6,0.9,3.4-1.3c-0.2-1.4,0.5-2.5,1.7-2.9
		c1.1-0.3,3-2.2,4.4-4.2s4.2-4.3,6.5-5.2c3.8-1.5,4.2-1.5,6.2,0.4c3.8,3.5,6.5,4.5,7.8,2.9c0.6-0.8,0.8-1.7,0.5-2
		c-1.2-1.2,4.2-8,6.9-8.7c1.4-0.4,4.4-1.5,6.5-2.6c3.4-1.7,4.5-1.8,8.3-0.8c8.1,2.2,8.4,2.5,5.4,7.1c-3.9,5.9-2.9,8.2,6.7,14.9
		c4.4,3.1,8.5,5.4,9.2,5.2s2.8-2.6,4.7-5.3c2.6-3.6,3.7-6.3,4.1-10.6c0.6-6.1,3.5-14.5,5-14.5c0.5,0,1.6,2.5,2.5,5.6
		s2.7,6.6,4.1,7.9c3.2,3,5.1,11.6,3.7,16.6c-1,3.3-0.8,3.9,2.5,7.3c2,2,5.1,6.9,6.9,10.9c1.8,4,5.1,9.6,7.3,12.6l4,5.3l-1.1,8.2
		c-0.8,5.9-2.1,9.9-4.7,14.4c-3.9,6.9-9.8,13.5-12.8,14.5c-1.1,0.4-3.7,3-5.7,5.8s-4.1,5.1-4.7,5.1c-0.6,0-2.9,2.4-5.3,5.4
		c-3.9,4.9-4.6,5.4-8.7,5.5c-3.1,0.1-5.5,0.9-8.1,2.9l-3.6,2.8L854.1,810.4L854.1,810.4z M348.2,788.6c-2.2-2.2-2.6-3.3-2.1-6.3
		c0.5-2.8,0-4.5-2-7.4c-1.4-2.1-2.5-4.3-2.5-4.9c0-0.6-1.8-3.6-4.1-6.6c-3.5-4.6-4.2-6.5-4.7-12.4c-1-10.4-4.3-21.6-8.8-29.7
		c-2.2-4-4.3-9.2-4.7-11.5c-0.8-5,1.2-12.4,5.8-21.4l3.1-6l-1.7-5.2c-1-2.9-1.4-6.4-1.1-7.8c0.4-1.7,0-3.8-1.3-5.9
		c-1.1-1.8-2.7-5.9-3.6-9c-1.2-4.2-2.9-6.9-6.3-10.3c-6.6-6.5-7.4-9-5.4-16c4.2-14.3-0.3-22.6-11.3-21c-4.3,0.6-4.4,0.6-5-2.5
		c-0.5-2.3-1.7-3.7-4.9-5.3c-4.1-2.1-5.8-2.1-10.9,0c-1.1,0.5-5.8,2.1-10.4,3.6c-6.9,2.3-8.9,2.6-11.9,1.7c-2.8-0.8-5.2-0.6-11,1
		c-6,1.6-8.2,1.8-11.4,0.9c-6.7-1.9-18.3-12.3-20-18c-1.3-4.4-9.2-14.7-11.9-15.4c-1.7-0.5-1.9-0.8-0.9-1.5c1.1-0.7,0.9-1-0.8-1.5
		c-2.6-0.7-2.9-2.8-0.3-2.9c1.6,0,1.6-0.2,0.3-1c-1-0.6-1.1-1-0.3-1s0.5-1.3-0.9-3.7c-2-3.4-2-3.8-0.5-5.5
		c4.6-5.1,5.7-16.2,2.1-23.1c-1.7-3.3-0.6-7.9,3-12.7c1.4-1.8,4-6.2,5.9-9.7c3.3-6.2,10.6-14.8,12.6-14.8c2.2,0,9.3-7.6,9.3-10
		c0-5.3,3.2-10.6,8.4-13.9c2.8-1.8,6-4.8,7.3-6.8c2.5-4,2.8-4.1,5.7-2.1c1.1,0.8,3.9,1.7,6.2,2.1c3.5,0.6,5.2,0.2,10.4-2.6
		c9-4.8,14.5-6,24.7-5.3c6.8,0.4,9.8,0.2,13.1-1.2c4.8-1.9,9-0.8,7.9,2.2c-0.3,0.9-0.1,2.2,0.5,2.9c0.7,0.9,0.7,2.2,0,4.2
		c-1,2.5-0.7,3.3,1.6,5.7c1.5,1.6,4.2,3.1,5.9,3.5c8.3,1.7,10.7,2.7,12.4,5.7c1.3,2.1,2.9,3.2,5.6,3.7c2.1,0.4,5.2,1.4,6.9,2.3
		c2.8,1.4,3.2,1.4,5.5-0.8c1.6-1.5,2.3-3,1.9-4.2c-0.3-1-0.1-2.8,0.5-4c1.6-3,6.2-2.7,13.3,0.9c7.8,3.9,22.5,6.7,27.7,5.2
		c2.5-0.7,4.9-0.7,7.1,0c7.2,2.2,10.8,0.5,11.8-5.6c0.3-2,0.9-3.6,1.2-3.6c0.7,0,1-3,1.1-9.6c0-2.1,0.5-3.9,1.1-3.9
		c0.7,0,0.7-0.8-0.1-2.2c-1.3-2.4-3.9-2.3-10.1,0.2c-2.9,1.2-3.8,1.2-6.4-0.4c-3.4-2-6.9-2.3-7.9-0.7c-0.8,1.2-6.1,0.4-8.9-1.4
		c-2.1-1.3-4-5.1-4-8c0-1.1-1.1-2.7-2.3-3.6c-2-1.4-2.1-1.8-0.8-2.7c0.9-0.6,2.6-0.8,3.9-0.5c1.7,0.4,3.2-0.3,5.1-2.2
		c1.8-1.8,4-2.8,6.5-2.9c2-0.1,5-1,6.6-2.1c3.4-2.3,11.2-1.6,17.3,1.4c8.1,4.1,15.4,3.8,18.3-0.6c1.5-2.3,1.5-2.8,0.1-5
		c-0.9-1.3-5.1-4.4-9.3-6.8l-7.8-4.4l1.5-2.8c0.8-1.5,1.2-3.1,0.9-3.4c-0.3-0.3-0.2-1.2,0.3-1.9c0.5-0.8,0.9-2,1.1-2.7
		c0.2-1.6-1.4-1.1-9.7,2.5c-4.8,2.1-5.5,2.8-4.4,4c0.7,0.8,2.3,1.5,3.5,1.6c1.7,0,1.3,0.5-1.8,2.1c-3.7,2-4.1,2-6.6,0.4
		c-2.1-1.4-2.3-2-1.4-3.2c1-1.2,0.8-1.6-0.7-2.2c-1.1-0.4-2.4-1.4-3-2.2c-3-4-12.4,6.5-15.1,16.7c-1.3,4.8-1.2,5.1,1.2,6.9l2.5,1.9
		l-4.6,1c-2.5,0.5-6,0.6-7.6,0.1c-3-0.8-6.9,0.4-6.9,2.2c0,0.5-0.7,0.7-1.6,0.4c-0.9-0.3-2.2-0.1-3,0.6c-1.3,1-1.1,1.9,1,5.8
		c2.3,4.3,2.3,4.8,0.9,7.7c-1.8,3.5-3.4,3.3-5.9-0.9c-1.7-2.9-1.7-3,0.6-3.3c2.9-0.4,3.1-2.3,0.3-2.7c-6.4-1-9.9-4.4-9.9-9.7
		c0-4.2-3.9-8.7-8.5-10.1c-2.4-0.7-5.1-2.3-5.9-3.4s-3.1-2.8-5.2-3.6c-2.1-0.9-4.4-2.4-5.1-3.5c-1.1-1.5-1.8-1.7-3.4-0.9
		c-1.1,0.6-2,1.7-2,2.6c0,2.7,13.2,14.9,19.7,18.1c6.9,3.5,7.9,4.7,3.2,3.6c-4.2-0.9-5.4,0-3.9,3.2c1,2.2,0.9,2.9-1.2,4.9l-2.4,2.3
		l0.5-3.1c0.9-4.9-5.6-12-11-12c-2,0-9.5-7.3-11.5-11.2c-2.1-4.1-4.5-4.9-7.8-2.6c-5,3.4-8.8,4.6-12.7,3.9c-5.2-0.9-8.5,0.9-7.7,4.3
		c0.4,1.7,0.2,2.5-0.8,2.5c-0.8,0-2.8,1.2-4.4,2.6c-1.7,1.4-3.4,2.6-3.8,2.6c-1.3,0-4.9,6.6-4.9,8.9c0,2.2-4.1,6.6-8,8.6
		c-1.2,0.6-4.1,1.2-6.4,1.2c-3.2,0-4.5,0.5-5.3,2.1c-1.1,2.1-1.2,2.1-3.8-0.5c-2.5-2.5-3.9-3.1-9-3.9c-2.6-0.4-3.1-6.4-1.1-14.9
		c0.8-3.6,1.3-7.7,0.9-9.1c-1-3.9,2.1-6.2,7.2-5.4c11.9,1.8,18.8,1.9,20.5,0.3c2.2-2.2,3.2-9.6,1.9-13.8c-0.9-2.7-2.1-3.8-5.8-5.2
		c-5.4-2.1-5.5-4-0.2-4.1c2,0,4.9-0.9,6.4-1.9s3.2-1.6,3.8-1.2c1.5,0.9,7-2.3,8.9-5.1c0.9-1.4,2.6-2.7,3.9-3.1
		c1.3-0.3,4.6-2.8,7.5-5.4c4-3.8,6.2-4.9,9.6-5.4c4.3-0.5,8.6-4,6.6-5.4c-1.3-0.8-2.3-5.9-1.6-7.7c0.3-0.9,1.8-2.4,3.3-3.3l2.7-1.7
		l-0.7,4.3c-0.6,3.7-0.4,4.2,1.1,4c1-0.2,2.9-0.9,4.2-1.6c2-1.1,2.5-1,3,0.3c0.9,2.3-1.6,5-3.3,3.6c-0.9-0.8-1.5-0.8-2.1,0.1
		c-0.5,0.9-1,0.8-1.6-0.2c-0.5-0.8-1.1-1.1-1.4-0.8s0.5,1.9,1.8,3.5c2.2,2.8,2.6,2.9,5.8,1.8c2.7-0.9,4-0.9,6.3,0.3
		c2.6,1.3,3.5,1.3,8.4-0.6c4.3-1.7,6.1-1.9,8-1c1.8,0.8,3.1,0.8,4.7-0.1c4.7-2.4,6-4.2,5.4-7.6c-0.9-4.9,0.7-6.6,4.9-5
		c2.8,1.1,3.6,1,4.9-0.3s1.2-1.8-1-4.2c-2.1-2.3-2.3-2.8-1-3.7c0.8-0.6,4-0.8,7-0.5c5.5,0.6,12.4-1.6,11.2-3.5
		c-1-1.7-7.4-2.2-12.7-1c-4.8,1.1-6,1-9.6-0.7c-5.7-2.6-6.3-5.5-2.4-10.9c5-7,5.9-9.2,4.5-10.9c-2.1-2.5-4.2-1.7-9,3.6
		c-2.5,2.8-6,5.7-7.7,6.4c-1.7,0.7-3.8,2.6-4.7,4.3c-1.4,2.7-1.4,3.3,0,5.5c0.9,1.3,2.5,2.7,3.7,3.1c3.2,1,2.6,2.9-2,6
		c-1.4,1-3.3,3.7-4.1,6c-1.1,3-2.8,5-5.4,6.5c-3.7,2.1-3.9,2.1-5.9,0.3c-1.2-1-2.4-3.2-2.7-4.7c-0.3-1.6-1.9-4.4-3.5-6.2l-2.8-3.4
		l-3.6,2.2c-2,1.2-4.5,2.2-5.7,2.2c-3.3,0-7.1-3.6-7.4-6.9c-0.1-1.6-0.6-3.8-0.9-4.7c-0.9-2.3,3.7-6.7,8.5-8s14.7-8.2,16.3-11.5
		c0.7-1.4,3.3-4.3,5.6-6.4c2.3-2.1,4.3-4.3,4.3-4.8s2.2-1.8,4.9-2.8c2.7-1,7.3-2.7,10.1-3.9c3.5-1.4,7.9-2.2,13.5-2.4
		c9.8-0.3,16.2,1,21.5,4.4c2.7,1.7,4.7,2.2,6.7,1.8c3.6-0.7,22.7,5.2,23.5,7.3c0.8,2.1-4.7,4.1-9.4,3.4c-2.2-0.3-6.6-1.1-9.9-1.8
		c-4.4-0.9-6.3-1-7.2-0.1c-0.9,0.9-0.4,1.5,1.7,2.5c1.6,0.7,3.5,2.6,4.3,4.2c2.1,4.1,8.8,7.4,12.3,6.1c3.3-1.3,3.3-1.7-0.2-3.6
		c-3.3-1.8-1.8-2.1,2.3-0.6c3.3,1.2,7-0.3,6.1-2.5c-0.4-1.1,0.7-1.8,3.9-2.6c6.8-1.8,7.3-2,6.8-3.4c-2.1-5.3-2.2-5.1,0.9-4.7
		c1.7,0.2,2.9,0.9,2.7,1.6c-0.1,0.7,0.7,1.8,1.9,2.4c1.8,1,3.2,0.6,8.2-2c7.3-3.8,12.9-5,15-3.3c1.2,1,3.1,1,8.8,0
		c4-0.7,7.7-0.9,8.3-0.6c0.6,0.3,1.3,0.1,1.7-0.5c0.8-1.3-1.4-4.3-2.7-3.6c-1.5,0.9-6.4-0.7-5.3-1.8c1.1-1.1,29.9,5.7,31.7,7.4
		c1.2,1.2,4.9-0.4,4.9-2c0-0.6-2.1-2-4.6-3.2c-7.8-3.8-8.3-9.9-1-11.7c4.3-1.1,6.1,0.2,12,8c7.6,10.2,7.5,9.7,5,13.2
		c-1.9,2.6-2,3.2-0.7,3.7c2.4,0.9,7.6-2.3,8.4-5.3c0.9-3.4-0.7-6.3-4.6-8.3c-3-1.6-5.2-4.4-5.2-6.8c0-0.8,1.1-1,3.4-0.6
		c3.4,0.6,6.1-0.6,13.8-6c1.7-1.2,4.7-2.1,7.7-2.1c6-0.1,8-1.1,6.2-3.2c-0.7-0.8-1-1.7-0.8-2c1.3-1.3,18.4-3.7,22.3-3.1
		c3.8,0.6,5,0.3,8.1-2.1c2-1.5,3.6-3.2,3.6-3.7c0-1.3-9.1-1.2-9.9,0.1c-1.1,1.8-2.5,1.1-2.1-0.9c0.3-1.7-0.5-2-8.1-2.6
		c-20.6-1.6-22.3-2-19.8-4.5c2.2-2.2,7.5-2.1,12,0.1c1.8,0.9,4.9,1.7,6.7,1.7c1.9,0,3.7,0.5,4.1,1c0.4,0.6,2.2,1,4,1
		c5.2,0,15.2,2.2,14.6,3.3c-0.3,0.5,0.7,0.9,2.2,0.9s4.2,0.8,6,1.8c2.5,1.3,5.9,1.8,13.2,1.8c7.8,0,10.4,0.4,12.7,2
		c1.6,1.1,2.8,2.2,2.8,2.6s-2.4,2-5.3,3.6c-7,3.9-5.6,5.6,3,3.4c5.5-1.4,6.8-1.4,11.4-0.1c3.8,1.1,6.1,1.3,8.6,0.5
		c2.5-0.7,5.1-0.6,9.6,0.6c4.6,1.2,7,1.3,9.9,0.5c6.7-1.9,14.9-1.3,19.6,1.3c2.4,1.3,6.7,3.7,9.7,5.3c5.3,2.9,5.5,2.9,9.1,1.3
		c3.1-1.4,4.8-1.5,9.3-0.6s6.1,0.8,8.6-0.6c2.5-1.3,2.9-1.9,1.9-3c-1.8-2.2,4.6-3,12.6-1.6c3.6,0.7,8.2,1.3,10.2,1.4
		s5.9,1.3,8.7,2.5c4.2,1.9,7.4,2.3,19.8,2.7c11.7,0.3,15.5,0.8,18.3,2.3c2.9,1.5,6.1,1.9,17,2c10,0.1,14.5,0.6,17.5,1.9
		c4.8,2.1,6.7,1.3,4.1-1.6c-1.9-2.1-1.9-2.1,5.4-1.4c12.1,1.2,26.7,3.9,31.6,5.8c2.6,1,7.5,2.1,10.9,2.6c3.4,0.4,8.4,1.9,11.1,3.2
		c4.1,2.1,5.4,2.3,8,1.4c3.6-1.2,5.9-0.3,11.3,4.4l3.4,2.9l-2.5,0.6c-2.6,0.6-9.4-1-11.7-2.9c-0.7-0.5-1.7-0.7-2.1-0.4
		c-0.5,0.3-2.9-0.1-5.4-1c-5.8-2-8.4-1.2-5.7,1.7c1.8,2,1.8,2-1.7,1.8c-6.4-0.4-4.7,1.5,4.8,5.1c5.1,2,9.6,3.9,9.8,4.1
		c1,0.9-2.2,2.1-4.6,1.7c-2.6-0.5-8.9,2.3-8.9,3.9c0,0.5-1,1.9-2.2,3c-2,1.9-2.5,1.9-5.2,0.5c-2.6-1.3-3.4-1.3-5.8-0.1
		c-1.6,0.8-4.3,1.8-6,2.2c-1.7,0.4-3.7,1.2-4.4,1.8c-2.1,1.7,1.6,6.8,6.8,9.3c2.8,1.4,4.9,3.2,5.5,4.9c0.5,1.5,1.7,4,2.5,5.5
		c1.4,2.5,1.4,2.8-0.1,3.4c-1.1,0.4-1.4,1.3-0.9,2.4c0.4,1,0.8,3,1,4.4s0.6,3.4,1,4.3c0.5,1.2,0.1,1.9-1.5,2.4c-1.8,0.6-3-0.1-6-3.4
		c-2.1-2.3-5.5-5.4-7.7-7c-2.1-1.6-6-5.6-8.5-9c-4.5-6-4.6-6.3-3.1-9.2c0.8-1.6,1.6-4.1,1.6-5.4s0.7-3.5,1.5-5
		c1.5-2.7,0.9-4.9-2.3-8.5c-2.1-2.4-5.8-0.6-4.9,2.4c0.9,2.7-1.8,3.6-4.9,1.6c-1.3-0.9-4.4-1.9-6.8-2.3c-4.1-0.7-4.4-0.5-5.5,2.3
		c-0.6,1.6-0.9,4.2-0.6,5.8c0.5,2.4,0.1,2.9-2.3,3.4c-1.7,0.4-4.5-0.1-6.9-1c-2.6-1.1-5-1.4-6.7-0.9c-1.5,0.4-6.5,0.8-11.2,0.9
		c-7.4,0.1-8.8,0.4-11.1,2.5c-1.4,1.3-3.1,4.6-3.8,7.3c-0.7,2.7-1.9,5.9-2.7,7.2c-1.4,2.2-1.3,2.4,2.8,4.5c4.4,2.3,9.2,2.8,12.9,1.6
		c2.8-1,11.4,5.7,14.1,11c1.1,2.2,2.9,4.4,4,5c4.2,2.3,5.1,17.1,1.6,26.9c-2.5,6.7-5.2,8.9-9.2,7.4c-1.5-0.6-3-1.1-3.1-1.1
		c-0.2,0-1.3,1.9-2.6,4.3c-1.6,3.1-1.9,4.6-1.1,5.6c1.5,1.8,0.4,4.2-2.6,5.6c-1.4,0.6-2.5,1.6-2.5,2.2s3.2,3.2,7.2,6
		c5,3.5,7.7,6.1,9,8.9c1,2.2,1.6,4.1,1.3,4.3c-0.2,0.2-2.4,1.4-4.7,2.5l-4.3,2.2l-2.6-5.9c-2.9-6.6-5.4-9.3-9.7-10.5
		c-2.2-0.6-3-1.4-3-3.2c0-1.7-1.1-3.1-3.4-4.4c-3.3-2-3.4-1.9-6.9,0.2c-3.5,2.2-3.6,2.2-4.7,0.2c-0.6-1.1-1.1-2.8-1.1-3.6
		s-0.9-2.1-1.9-2.6c-1.6-0.8-2.6-0.3-5.5,2.8c-2,2.1-4.5,4.4-5.6,5c-1.7,1-1.8,1.4-0.6,2.8c0.8,0.9,3.4,2.8,5.9,4.2
		c3.9,2.2,4.7,2.3,6,1s2.3-1.3,6.1-0.3l4.6,1.2l-2.5,1.7c-4.7,3.1-6.2,4.8-6.9,7.6c-0.6,2.3-0.2,3,1.9,4c1.4,0.6,3.5,3.2,4.7,5.6
		c1.2,2.5,3.6,5.3,5.3,6.3c3.8,2.2,4.9,4.6,2.7,5.9c-2,1.1-1.1,2.9,1.6,2.9c3.2,0,3.2,1.9,0.1,13.1c-3.8,13.5-7.2,18-16.1,21.2
		c-3.5,1.3-7.8,2.4-9.5,2.5c-4,0.2-7.1,1.9-9.8,5.3l-2.1,2.7l-1-2.6c-1.3-3.4-4.3-4.3-8.6-2.5c-3.9,1.7-6.5,4.3-7.6,7.7
		c-0.9,3.1,2.4,8.4,7.8,12.8c4.5,3.6,9.5,12.5,10.7,19c1,5.6-0.8,9.4-5.7,11.6c-2.2,1-4.3,2.7-4.6,3.7c-0.8,2.4-5.4,5.4-6.2,4.1
		c-0.4-0.6-0.4-1.9,0-3s0.3-2.7,0-3.6c-0.5-1.3-1.1-1.5-2.7-0.6c-1.7,0.9-2.4,0.7-3.7-1.3c-3.4-4.9-13.2-12.8-15.9-12.8
		c-1,0-1.3,1.2-1.2,3.6c0.1,2-0.3,5.9-0.9,8.7c-1,4.5-0.9,5.3,1,7.9c1.2,1.6,2.4,4.1,2.8,5.5c0.4,1.5,3.4,4.8,6.8,7.5
		c5.7,4.6,6.3,5.5,8.7,13.1c1.4,4.5,2.6,8.6,2.6,9.2c0,1.8-2.2,1-6.7-2.2c-4.7-3.4-7.7-8.7-10.2-18.1c-1.1-4.1-2.3-5.8-5.6-8.3
		c-4.1-3-4.3-3.3-3.9-8.3c0.2-2.9,0.7-6.9,1-9c0.5-2.9,0.1-5-2-9.3c-1.5-3-3.2-7.7-3.9-10.4c-1.5-6-3.5-7-7.2-3.5
		c-1.5,1.4-3,2.6-3.4,2.6c-1.7,0-3.9-3.5-3.4-5.2c1-3.1-5.1-14-8.6-15.4c-1.9-0.8-3.7-2.8-4.9-5.4c-2.1-4.6-4.4-6.3-6.7-5.1
		c-0.8,0.5-4.2,1.4-7.5,2.1c-6,1.2-8.2,3-7.3,6.2c0.3,1.2-0.7,2.3-3.3,3.5c-2,1-4.2,2.9-4.9,4.4c-0.6,1.4-2.1,2.9-3.2,3.2
		c-1.1,0.3-2.8,1.9-3.8,3.5s-3.9,4.5-6.4,6.5c-3.5,2.7-4.6,4.2-4.4,6.1c1,11.1-0.5,20.3-4.4,25.8c-3.7,5.4-4,5.5-7.1,4.1
		c-1.7-0.8-2.8-2.3-3.2-4.7c-0.4-1.9-2.5-7.4-4.6-12.1c-13.3-28.5-15.2-33.9-14.1-39.1c0.8-3.5-1.1-8.7-2.8-8.1
		c-0.7,0.2-1.3,1.1-1.3,1.9c-0.1,4.7-5.4,5.5-9.6,1.3l-2.8-2.8l2.4-0.9c2.7-1,2.4-3.6-0.3-3.2c-1,0.2-3.2-0.9-4.9-2.3
		c-1.7-1.5-3.5-2.6-4-2.6s-1.2-0.9-1.6-2.1c-1-3-6.5-5.6-9.2-4.4c-2.5,1.1-25,0.9-28.8-0.3c-1.4-0.4-3.9-2.4-5.6-4.3
		c-3.1-3.5-3.1-3.6-7.8-2.3c-4.4,1.2-5,1.1-11-1.9c-5.1-2.6-6.7-4-8.2-7.5c-2-4.5-6.5-7.7-9.2-6.7c-0.9,0.3-1.9,2-2.2,3.6
		c-0.5,2.4,0,4,2.6,7.4c1.8,2.4,3.7,6.2,4.3,8.3c1.3,4.7,3.8,6.1,5.8,3.3c1.2-1.7,1.6-1.8,2.4-0.4c0.5,0.9,0.8,2,0.6,2.6
		c-0.6,1.8,5.4,4.7,8.2,4c1.4-0.4,4.4-2.8,6.7-5.3c3.6-4.1,4.8-4.3,4.2-0.9c-0.4,2.3,1.4,5,4.4,6.5c4.6,2.4,11.1,7.7,11.1,9.2
		c0,0.7-1.2,2.3-2.7,3.7s-3.6,4.3-4.7,6.5c-2.7,5.3-10.7,13.1-13.3,13.1c-3.1,0-7.7,2.6-9.5,5.4c-0.9,1.3-3.2,3.2-5.1,4.2
		c-9.9,4.9-21.7,9.9-25.1,10.5c-3.6,0.7-3.9,0.5-5.8-3.2c-1.1-2.2-2.3-6.5-2.8-9.6c-0.6-4.1-1.6-6.7-3.8-9.1c-1.6-1.9-3-3.9-3-4.4
		c0-0.6-1.9-2.9-4.2-5.3c-2.8-2.9-4.7-6.1-5.8-10.1c-0.9-3.2-2.8-7.2-4.2-8.9c-9.5-11.8-12.3-16-13.8-20.3c-1.9-5.8-3.5-6.7-4.2-2.5
		l-0.5,3l-3.5-4.4c-5.4-6.8-6.1-3.7-1,4.6c2.4,3.9,6.2,10.9,8.5,15.5c2.3,4.6,5.2,9.7,6.6,11.5s2.4,4.7,2.4,6.6
		c0,3.9,1.2,6.3,5.7,12c1.8,2.3,3.7,5.6,4,7.4c0.5,2.3,2.5,4.7,6.8,8.2c6.5,5.2,10.8,10.7,11.8,15.3c0.4,1.7,1.9,3.5,3.8,4.5
		c2.9,1.5,3.9,1.5,13.1-0.5c5.5-1.2,11.2-2.8,12.8-3.7l2.9-1.5l0.7,4.1c0.6,3.7,0,5.5-7.4,19.7c-7.9,15.2-8.3,15.7-16.2,22
		c-4.4,3.5-9.1,7.8-10.3,9.5c-1.2,1.7-5.2,6.4-8.8,10.5c-10.5,11.7-12,22-5,35.8c1.8,3.5,2.5,6.2,2,7.8c-0.3,1.4-0.1,4.9,0.5,7.8
		c1,4.6,0.9,5.8-0.8,9.1c-2.5,4.8-4.4,6.5-11.3,10c-3,1.5-5.4,3.2-5.4,3.7s-2.1,3.4-4.7,6.2c-2.6,2.9-4.7,5.7-4.7,6.3s1,2.9,2.1,5.2
		c3.5,6.9,1.2,11.9-7.3,15.4c-3.6,1.5-4.7,4.5-3.9,9.9c0.5,2.8,0.2,3.8-1.4,4.7c-1.1,0.6-3.1,2.8-4.5,4.9
		c-4.3,6.7-16.5,18.5-22,21.3c-4.6,2.3-5.8,2.5-9.2,1.6c-3-0.8-5.4-0.7-10.5,0.6C350.5,791.7,351.3,791.8,348.2,788.6L348.2,788.6z
		 M484.8,457.7c2.7-1.4,3.1-2.1,3.1-6.1c0-2.8-0.6-5-1.6-5.9c-0.9-0.7-2.3-2.7-3.2-4.4c-1.4-2.8-1.4-3,0.1-2.4
		c2,0.8,4.8-0.2,4.8-1.6c0-0.6-1-2.4-2.1-4c-1.8-2.5-2.5-2.8-4.1-1.9c-1.3,0.7-2,0.7-2,0c0-0.6-1.9-2-4.1-3.2
		c-5-2.6-6.8-5.4-5.2-8.3c1.2-2.2,5.4-3.8,7.2-2.6c2.4,1.5,3.1-0.7,1.1-3.5c-4.9-6.8-11.6-6.4-20,1.3c-5.4,5-5.9,6.3-2.8,7.9
		c1.1,0.6,2.1,1.8,2.1,2.7s1.8,3.5,4.1,6c5.2,5.6,6.1,8.2,5.5,14.9l-0.5,5.4l7.1,3.7c3.9,2,7.3,3.7,7.4,3.7
		C481.6,459.3,483.1,458.6,484.8,457.7L484.8,457.7z M456.2,747.5c-2.9-1.7-3.3-2.5-4.1-8.7c-0.6-4.9-0.4-6,2.6-10.7
		c3-4.8,3.2-5.8,2.5-11c-0.9-7.6,0.7-11.6,5.1-12.5c4.2-0.9,13.1-8.8,15.3-13.5l1.6-3.6l1.1,2.5c2.9,6.3,2.6,9.1-2.4,22.9
		c-2.7,7.4-5.6,16.3-6.4,19.7c-2.7,11-4.2,13.6-8.6,14.9C458.4,749,458.8,749,456.2,747.5L456.2,747.5z M967.3,729.5
		c-3.3-3.6-5.3-6.7-5.3-8.3c0-3.5,0.6-3.2,3.6,1.9c1.4,2.4,4,5.8,5.7,7.5s3.1,3.4,3.1,3.9C974.5,736.4,972.2,734.9,967.3,729.5
		L967.3,729.5z M504.5,728c0-0.6,0.5-1,1-1s1,0.5,1,1s-0.5,1-1,1S504.5,728.6,504.5,728z M1050.8,726.1c-0.4-0.6-0.2-1.4,0.5-1.8
		c1.5-1,2.1-0.2,1.1,1.5C1051.8,726.7,1051.3,726.8,1050.8,726.1L1050.8,726.1z M511.7,724.4c0-0.3,0.5-0.7,1-1.1
		c0.6-0.4,1-0.1,1,0.5s-0.5,1.1-1,1.1S511.7,724.7,511.7,724.4z M1023.8,713.9c-1-2.6,0.3-3.6,3.1-2.3c2.5,1.1,2.5,1.3,0.8,2.6
		C1025.4,716,1024.6,715.9,1023.8,713.9z M1030.4,709.3c-2-1.3-0.6-2.3,2.6-1.9c2.5,0.3,2.6,0.4,0.8,1.5
		C1032.6,709.7,1031.3,709.8,1030.4,709.3L1030.4,709.3z M982,705.5c-2.1-4.6-1.4-6.4,0.8-1.9c2.3,4.6,2.3,4.7,1.3,4.7
		C983.6,708.3,982.7,707,982,705.5z M986,704.8c0-1.1,0.2-1.7,0.5-1.4s0.4,1.2,0.1,2C986.2,706.2,986,706,986,704.8L986,704.8z
		 M1070.4,694.8c-0.9-1.5,0-2.3,2.2-1.9c1.6,0.3,1.6,0.5,0.2,1.7C1071.6,695.6,1070.9,695.6,1070.4,694.8L1070.4,694.8z
		 M457.3,689.6c-0.4-0.6-0.1-1,0.5-1s1.1,0.5,1.1,1s-0.2,1-0.5,1S457.6,690.2,457.3,689.6z M912.7,679.9c-6.6-2.1-9.5-4-12.1-7.8
		c-3-4.4-8.4-7.7-11.1-6.8c-1.1,0.4-3,2.3-4.2,4.3c-2,3.4-2.4,3.6-6,2.9c-2.1-0.4-5.1-1.8-6.7-3.3c-1.9-1.8-3.4-2.4-4.9-1.9
		c-1.2,0.4-2.9,0.3-3.8-0.2c-1.4-0.8-1.3-1.2,1-2.7c2.6-1.7,2.6-1.8,0.9-5.5c-1.4-3-3.4-4.5-9.8-7.8c-4.4-2.2-9.4-4-11.1-4
		c-3.9,0-5.5-3.6-2.5-5.7c1.7-1.3,1.5-1.6-3-3.8c-4.8-2.3-4.9-2.4-2.6-3.7c1.3-0.7,3.4-1.3,4.6-1.3c2.4,0,5.5,3.5,5.5,6.3
		c0,0.9,1,3,2.2,4.6c2.2,2.8,2.3,2.8,3.9,0.8c0.9-1.1,3.8-3.3,6.4-4.8l4.8-2.7l6.6,3c3.6,1.6,8.8,3.8,11.5,4.7c2.7,1,8,3.8,11.9,6.4
		c7.4,4.9,10.6,9,8.8,11.2c-1.5,1.8,4.4,10.1,10.5,14.7C920.2,681.7,920.1,682.2,912.7,679.9L912.7,679.9z M957.9,679.8
		c-0.8-1-0.9-1.6-0.2-1.6c1.3,0,2.7,2,2,2.7C959.4,681.2,958.6,680.7,957.9,679.8L957.9,679.8z M783.6,675.6c-1.5-0.8-1.9-1.4-1-1.5
		c1.9,0,4.8,1.7,4.1,2.4C786.4,676.8,785,676.4,783.6,675.6z M801.1,674.2c2.9-4.1,7.5-5.9,11.8-4.5c3.1,1,3.2,1.1,0.7,1.2
		c-1.5,0.1-4.9,1.5-7.6,3.2C799.9,678,798.4,678,801.1,674.2L801.1,674.2z M951.6,675.6c-1.4-1.7-1.1-1.9,1.5-0.9
		c0.9,0.3,1.6,1,1.6,1.6C954.7,677.7,953.1,677.3,951.6,675.6z M956.5,674.7c-0.4-1-0.7-2.6-0.6-3.6c0-1.1,0.4-0.9,1.1,0.8
		c0.6,1.4,0.8,3,0.6,3.6C957.4,676.1,956.9,675.7,956.5,674.7L956.5,674.7z M1036.7,675.7c0-0.3,0.5-0.7,1-1.1s1-0.1,1,0.5
		s-0.5,1.1-1,1.1S1036.7,675.9,1036.7,675.7z M771.4,671.3c-0.7-0.3-1-1-0.7-1.5c0.8-1.3,7.4-1.2,8.2,0.1c0.4,0.6,0,1-0.7,1.1
		c-0.7,0-2.3,0.2-3.4,0.5C773.6,671.7,772.1,671.6,771.4,671.3L771.4,671.3z M786.8,670.5c-1.9-2.3,0.3-3,5.2-1.6
		c4.9,1.3,4.9,1.5-0.2,2.5C789.1,671.8,787.6,671.6,786.8,670.5z M942.5,669.9c-0.7-1.1-0.8-2.1-0.3-2.1c0.6,0,1.5,0.9,2.1,2.1
		c0.6,1.1,0.7,2.1,0.3,2.1C944.2,672,943.2,671.1,942.5,669.9z M949,668.9c-2.8-3.1-1.3-3.5,1.6-0.5c1.3,1.4,2,2.6,1.4,2.6
		S950.1,670,949,668.9L949,668.9z M754.5,668.7c-3.7-0.5-8.9-1.7-11.6-2.5c-2.7-0.9-5.8-1.3-7-0.9c-2.4,0.8-12.5-2.2-12.5-3.7
		c0-3.3,9.3-3.6,14.2-0.4c1.8,1.2,3.3,1.3,7.2,0.4c4.3-1,5.2-0.8,7.8,1c1.6,1.2,3.3,2.1,3.9,2.1c2.1,0,8.3,3.5,7.8,4.3
		c-0.3,0.5-1.1,0.8-1.8,0.7C761.8,669.7,758.2,669.2,754.5,668.7L754.5,668.7z M940.7,663.7c-1-1.1-1.4-2.1-0.8-2.1
		c0.6,0,1.9,0.9,2.9,2.1c1,1.1,1.4,2.1,0.8,2.1C943.1,665.8,941.8,664.8,940.7,663.7L940.7,663.7z M934.2,662.4
		c-0.6-0.7-1.4-2.7-1.7-4.4c-0.6-2.8-0.5-2.9,0.6-1c0.7,1.1,1.9,2.8,2.7,3.8c0.9,1,1.1,2,0.5,2.3
		C935.7,663.4,934.8,663.1,934.2,662.4z M912.2,659.1l-2.6-1.4l4-0.7c2.2-0.4,5.6-2.1,7.5-3.8c2.1-1.9,3.5-2.5,3.5-1.7
		c0,2.1-1.3,3.7-5.2,6.6C915.4,661,915.6,660.9,912.2,659.1L912.2,659.1z M717.6,655c-3.8-2.2-10.7-10.6-12.9-15.8
		c-1.2-2.8-4-7.5-6.1-10.3s-4.7-6.6-5.5-8.3c-0.9-1.7-3.5-5-5.9-7.3c-5-4.8-8.1-9.9-6-9.8c2.7,0,9.7,3.9,12.7,7.1
		c8.3,8.7,10,10.2,13.9,12.6c3.8,2.3,5.6,4.7,5.7,7.8c0,0.6,1.1,2.2,2.4,3.6c1.3,1.4,3.7,4.1,5.4,6s3.3,4.7,3.7,6.4
		C726.1,652.5,721.7,657.4,717.6,655L717.6,655z M508.6,654.4c0-0.6,0.5-1,1-1s1,0.5,1,1s-0.5,1-1,1S508.6,654.9,508.6,654.4z
		 M783,654.3c-0.4-0.6-0.4-2,0-3.1s-0.1-3.1-1-4.5c-1.4-2.2-1.4-2.7,0.1-4.9c1-1.4,2.1-5,2.5-8.2c0.5-3.8,1.6-6.5,3.2-8.1
		c2.3-2.3,2.8-2.4,7.9-1.4c4.4,0.8,6.1,0.7,8.5-0.5c4-2.1,4.3-2,3,0.9c-1.7,3.7-5,4.9-8.6,3c-6.3-3.3-14.7,1.6-10.3,6
		c1.6,1.6,2.5,1.8,5.5,0.9c5.2-1.5,7.2-1.2,4,0.5c-3.6,2-4.3,4.2-2.5,7.8c0.9,1.6,1.5,4.2,1.5,5.7c0,2.4-0.2,2.5-2.1,1.6
		c-1.1-0.6-2.8-2.8-3.7-4.9c-1.6-3.8-1.6-3.8-3.6-1.8c-1.8,1.8-1.9,2.5-0.9,6c0.9,3.2,0.8,4.2-0.3,4.9
		C784.7,655.6,783.8,655.6,783,654.3L783,654.3z M925.4,648.8c-1-1.5-3.2-3.5-5-4.4s-3-1.9-2.7-2.2c1.6-1.6,10.6,5.7,9.8,8
		C927.3,651,926.4,650.4,925.4,648.8L925.4,648.8z M762.5,645.4c-1.6-0.8-3.7-1.2-4.7-0.9c-2.6,0.8-12.8-1.3-13.8-2.8
		c-0.8-1.2-3.2-8.8-4.5-14.3c-0.3-1.5,0-3.4,0.8-4.5c1.2-1.6,1.8-1.7,3.7-0.7c2,1.1,2.4,0.9,3.5-1.5c0.7-1.5,2.9-3.6,5-4.7
		c2.2-1.1,4.3-3.2,5.1-5.1c0.9-2.1,2.5-3.5,4.8-4.3c1.9-0.6,4.8-2.8,6.2-4.7s3.3-3.5,3.9-3.5c0.7,0,2.7,1.5,4.5,3.4l3.3,3.4
		l-2.7,3.6c-3,4.1-2.9,7.6,0.6,12.4l2.1,2.9l-2.6,1.7c-1.4,0.9-2.6,2.3-2.6,3c0,2.4-6.6,16.1-8.3,17.1
		C765.8,646.5,764.4,646.4,762.5,645.4L762.5,645.4z M822.7,645.3c-2.1-0.6-2.4-2.4-0.4-2.4c0.8,0,3,0.3,4.9,0.7
		c2.9,0.6,3.1,0.8,1.4,1.5C826.4,646,825.4,646,822.7,645.3L822.7,645.3z M987.9,632.1c0-0.3,0.5-0.7,1-1.1c0.6-0.4,1-0.1,1,0.5
		s-0.5,1.1-1,1.1S987.9,632.4,987.9,632.1z M819.1,629.3c-0.8-0.8-0.9-1.8-0.2-3.1c0.6-1.1,0.8-2.4,0.4-2.9
		c-0.9-1.5,1.4-5.2,3.3-5.2c1.5,0,1.5,0.2-0.1,1.9c-1.4,1.5-1.5,2.5-0.7,4.7C823.5,629,821.7,631.9,819.1,629.3L819.1,629.3z
		 M298,625.9c0-0.3,0.5-0.7,1-1.1c0.6-0.4,1-0.1,1,0.5s-0.5,1.1-1,1.1S298,626.1,298,625.9z M1017.5,623.2c-0.4-0.6-0.1-1,0.5-1
		s1.1,0.5,1.1,1s-0.2,1-0.5,1C1018.4,624.3,1017.9,623.8,1017.5,623.2z M304.2,613.4c0-0.3,0.5-0.7,1-1.1c0.6-0.4,1-0.1,1,0.5
		s-0.5,1.1-1,1.1S304.2,613.7,304.2,613.4z M803.3,597.8c-2-4.6-2.2-4.8-5.3-4.2c-3,0.7-3.1,0.6-2-1.5c0.9-1.8,1.8-2.1,4-1.6
		s3.5,0,5.6-2c1.5-1.4,2.8-3.4,2.8-4.4c0-2.6,3.9,6.2,4.8,10.9c0.7,3.6,0.6,3.8-1,2.4c-2.4-2-4.7,0.1-2.7,2.5
		c0.8,0.9,0.9,1.6,0.2,1.6c-0.6,0-1.8,0.3-2.7,0.6C805.8,602.5,804.8,601.4,803.3,597.8L803.3,597.8z M614.1,599.7
		c-1.2-1.9-1.8-10.3-1-12.6c0.9-2.4,1-2.4,3.6,1.6c3.2,4.7,4.2,7.7,3.1,9.3C618.9,599.5,614.8,600.7,614.1,599.7L614.1,599.7z
		 M845.8,594.3c0-0.6,0.5-1.3,1-1.7s1-0.2,1,0.4c0,0.6-0.5,1.3-1,1.7C846.3,595,845.8,594.9,845.8,594.3z M1008.7,594.2
		c0-0.6,0.2-1,0.5-1s0.7,0.5,1.1,1c0.4,0.6,0.1,1-0.5,1S1008.7,594.7,1008.7,594.2z M773.2,588.2c0-0.4,2.1-3.1,4.6-6
		c3.7-4.2,4.6-4.7,4.7-3c0,1.2-1.5,3.9-3.5,6C775.7,588.7,773.2,590.1,773.2,588.2z M795.7,585.4c-0.4-1-0.3-2.5,0.2-3.3
		c0.7-1.3,1-1.3,2.1-0.1c0.9,1.1,0.9,1.9-0.2,3.3C796.4,587.1,796.3,587.1,795.7,585.4z M1.2,581.4c0.6-0.8,0.8-1.7,0.5-2.1
		c-0.4-0.4,0.3-0.7,1.5-0.7c1.6,0,2,0.5,1.6,2.1c-0.3,1.2-1.4,2.1-2.6,2.1C0.5,582.8,0.3,582.5,1.2,581.4L1.2,581.4z M802.6,581.1
		c-0.4-1.1-0.9-2.3-1.1-2.7c-0.2-0.4,0-0.8,0.6-0.8c1,0,2.5,4.3,1.7,5C803.5,582.9,803,582.2,802.6,581.1z M792.1,578.4
		c-1.5-1.8,0-4.3,2.1-3.8c1.4,0.3,1.4,0.7,0.3,2.8C793.5,579.3,793.1,579.5,792.1,578.4z M804.4,574.8c-1.2-1.5-2-2.9-1.8-3.1
		c0.8-0.8,3.8,1,5.3,3.4C810.3,578.7,807.3,578.5,804.4,574.8z M787.3,570.8c-0.9-0.9-1.7-2.2-1.7-2.9s1-0.2,2.3,1.1s2,2.5,1.7,2.9
		C789.3,572.2,788.2,571.7,787.3,570.8z M-27.1,570.7c-0.4-0.4-0.7-1.2-0.7-1.8c0-0.7,0.5-0.6,1.2,0.2c0.7,0.7,1,1.5,0.7,1.8
		C-26.1,571.1-26.7,571-27.1,570.7z M-32.9,569.3c0-0.6,0.2-1,0.5-1s0.7,0.5,1.1,1s0.1,1-0.5,1S-32.9,569.8-32.9,569.3z M15.8,567.2
		c0-0.6,0.2-1,0.5-1s0.7,0.5,1.1,1c0.4,0.6,0.1,1-0.5,1S15.8,567.8,15.8,567.2z M797.8,567c-1-0.6-3-0.8-4.4-0.4
		c-2,0.5-3.4-0.3-7.2-4.2c-5.3-5.5-6.3-7.8-4.8-10.7c0.6-1.1,1.1-3.4,1.1-5.2c0-5.6,3.8-5.4,6.5,0.4c1.5,3.2,1.5,3.9,0.1,7.3
		c-1.5,3.7-1.5,3.9,1.2,6.8c2,2.1,3.5,2.8,5.1,2.4c1.3-0.3,2.8,0.1,3.6,1C800.9,566.8,800.1,568.4,797.8,567L797.8,567z M9.6,560.5
		c0-0.3,0.5-0.7,1-1.1s1-0.1,1,0.5s-0.5,1.1-1,1.1S9.6,560.8,9.6,560.5z M172.5,556.8c0-0.6,0.5-1,1-1c0.6,0,1,0.5,1,1s-0.5,1-1,1
		C173,557.9,172.5,557.4,172.5,556.8z M6.5,552.8c0-0.6,0.5-1.3,1-1.7c0.6-0.4,1-0.2,1,0.4c0,0.6-0.5,1.3-1,1.7
		C7,553.5,6.5,553.4,6.5,552.8z M-2.3,548.5c-0.4-0.6,0.1-0.8,1-0.4c1.8,0.7,2.1,1.4,0.6,1.4C-1.2,549.6-2,549.1-2.3,548.5z
		 M162.6,548.5c-0.4-0.6-0.1-1,0.5-1s1.1,0.5,1.1,1s-0.2,1-0.5,1C163.5,549.6,163,549.1,162.6,548.5z M1.8,546.5
		c-0.4-0.6-0.1-1,0.5-1s1.1,0.5,1.1,1s-0.2,1-0.5,1S2.2,547,1.8,546.5z M6.5,546.5c0-0.6,0.2-1,0.5-1s0.7,0.5,1.1,1
		c0.4,0.6,0.1,1-0.5,1S6.5,547,6.5,546.5z M-64.8,543.7c-0.7-0.3-1.3-1-1.3-1.5c0-1.5,4.6-1.1,6.8,0.6c1.9,1.4,1.9,1.5-1.1,1.5
		C-62.1,544.2-64.1,544-64.8,543.7z M-38.6,543.1c-0.9-0.5-3-0.7-4.6-0.3c-1.6,0.3-4,0.2-5.4-0.4c-2.2-0.9-2-1,1.7-0.9
		c5.5,0.1,7-0.8,5.6-3.4c-1-1.9-0.7-2,4.2-2c4.8,0,11.7,2.2,12.9,4.1C-23.4,541.4-36.7,544.1-38.6,543.1L-38.6,543.1z M-18.7,543.8
		c-1.2-1.2,0.3-2.5,3-2.5c1.6,0,2.5,0.5,2.2,1.3C-14,544-17.6,544.9-18.7,543.8z M731.9,542.1c-2.7-2.7,0-6,5-6c2.2,0,2.2,0,0.3,3.3
		C735,543.2,733.7,543.9,731.9,542.1z M-10.1,541.9c0-0.2,0.7-0.7,1.6-1s1.6-0.1,1.6,0.4s-0.7,1-1.6,1S-10.1,542.1-10.1,541.9z
		 M-55,534.5c-0.3-0.3-2.5-0.6-4.9-0.6c-3.3,0-4-0.4-3.2-1.3c0.8-0.9-0.3-2.2-4.2-4.6c-7.5-4.8-11.7-5.8-16.7-3.8
		c-4.7,1.9-5.1,1.9-5.1,0.8c0-2.2,8.3-4.6,14.2-4.1c5.7,0.4,8.9,1.6,20,7.6c9.2,4.9,9.2,4.9,6.2,5.8
		C-51.9,535.1-54.2,535.2-55,534.5z M-47.5,525.7c2-1.3,3.1-1.3,3.1,0c0,0.6-1.1,1-2.3,1C-48.6,526.7-48.7,526.5-47.5,525.7z
		 M778.8,523.9c-0.6-0.4-1.7-1.8-2.4-3.1c-1-2-0.9-2.9,0.6-5.6c2.4-4.1,4.1-4.7,4.8-1.5C782.7,516.9,780.3,524.9,778.8,523.9
		L778.8,523.9z M-40.6,522.5c0.7-1.1,4.6-1.2,4.6-0.1c0,0.4-1.2,0.8-2.6,0.9C-40.1,523.3-41,523-40.6,522.5L-40.6,522.5z
		 M-61.2,512.5c-1.7-1.9-1.4-4.4,0.4-4.4c0.6,0,0.8,0.9,0.5,2s0,2.2,0.7,2.5c0.7,0.2,0.9,0.7,0.6,1.1
		C-59.3,514-60.3,513.5-61.2,512.5z M-55.1,504.3c-0.4-1-0.4-2-0.2-2.3c0.3-0.3,0.8,0.3,1.2,1.2c0.4,1,0.4,2,0.2,2.3
		C-54.2,505.8-54.8,505.3-55.1,504.3z M-61.6,503.4c0-0.9,0.9-1.6,2-1.6c1.8,0,1.8,0.2,0.4,1.6c-0.9,0.9-1.7,1.6-2,1.6
		C-61.4,505-61.6,504.3-61.6,503.4z M808.5,480.7c0-0.8-1.1-2.8-2.5-4.5c-3.3-3.9-2.1-6.5,1.8-4c2.8,1.8,4.3,5.6,3.2,8.3
		C810.2,482.5,808.5,482.6,808.5,480.7z M3.4,474.4c0-0.3,0.5-0.7,1-1.1c0.6-0.4,1-0.1,1,0.5s-0.5,1.1-1,1.1S3.4,474.7,3.4,474.4z
		 M814.2,473.1c-0.7-1.8,0.9-3.4,3.3-3.4c1.6,0,1.7,2.3,0.1,3.9C815.9,475.3,815,475.2,814.2,473.1L814.2,473.1z M823.7,469.3
		c-2-3.1-4.9-3.5-11.4-1.7c-2.6,0.7-4.5,0.7-5.7,0c-1-0.6-1.3-1.1-0.6-1.1s2.6-1.2,4.3-2.7c2.2-1.9,3.8-2.5,5.6-2
		c1.9,0.5,3.9-0.4,8.1-3.6c8.2-6.2,8.9-8.1,5.6-14.7c-3.2-6.3-2.3-8.4,2.4-5.6c3.5,2,6.7,7.9,5.8,10.4c-0.3,0.9,0.2,3.7,1.1,6.2
		c1.4,3.6,1.5,5.1,0.6,6.8c-1.3,2.5-5,4.2-9.3,4.2c-2.4,0-3.1,0.6-3.8,3.3l-0.9,3.3L823.7,469.3L823.7,469.3z M403.4,465.8
		c-1.2-1.2-0.6-2.4,1.4-2.4c1.1,0,2.3-0.5,2.7-1c1-1.6,2.6-1.2,2,0.4C408.8,464.5,404.3,466.7,403.4,465.8L403.4,465.8z M368.1,464
		l-3.1-1.4l4.1-0.1c5.2-0.1,9,0.9,8.2,2.1C376.5,466,371.6,465.6,368.1,464L368.1,464z M326.1,453.7c-4.2-2.1-4.3-2.4-2.2-3
		c2.6-0.7,8.3,0.2,8.2,1.2c0,0.4-0.4,1.4-0.8,2.4C330.8,455.8,330.3,455.8,326.1,453.7z M305.3,442.4c-0.9-2.6-0.8-3.6,0.3-4.7
		c2.1-2.1,3.7-0.6,3.7,3.4C309.4,445.8,306.8,446.7,305.3,442.4L305.3,442.4z M281,443.3c0.7-1.9,3.9-2.2,3.3-0.3
		c-0.2,0.7-1.2,1.4-2.2,1.6C280.9,444.8,280.6,444.4,281,443.3L281,443.3z M823.1,431.5c-1.9-2.7-2-3.2-0.5-5.2c1.4-2,1.4-2.6,0-5.3
		c-2.3-4.5-2-4.8,2-1.7c2,1.5,5.9,3.5,8.8,4.3c5.8,1.7,7.2,3.1,4.2,4.1c-1.1,0.4-2.1,1.3-2.1,2.2c0,1.1-0.7,1.3-2.9,0.8
		c-5.5-1.4-7-1.1-6.7,1.5C826.3,435.2,825.6,435,823.1,431.5L823.1,431.5z M307,432.7c-1.2-1.2-0.7-3.2,0.9-3.8
		c1.1-0.4,1.6,0.1,1.6,2C309.4,433.3,308.4,434.1,307,432.7z M816.5,410.8c-0.9-1-3-4.6-4.7-8s-6.2-9.7-10.1-14
		c-4.3-4.8-6.4-7.9-5.6-8.2c0.7-0.2,2.3,0.8,3.5,2.4c2.9,3.8,6.4,7.1,11.9,11.2c4.6,3.4,6.9,6.5,3.9,5.4c-3.4-1.3-2.6,1.8,1.9,6.8
		c2.6,2.9,4.7,5.5,4.7,5.8C821.9,413.4,817.9,412.4,816.5,410.8L816.5,410.8z M57.3,409c0-0.9,0.5-1.6,1-1.6c0.6,0,0.7,0.7,0.4,1.6
		s-0.8,1.6-1,1.6C57.5,410.5,57.3,409.8,57.3,409z M51.9,405.6l-3.9-0.4l7.3-7.2c4-4,7.8-7.2,8.4-7.2c0.7,0,0.5,0.8-0.5,1.8
		c-2.2,2.4-0.7,5.1,3.3,5.9c1.7,0.4,3.4,1.7,4.1,3.2c1.1,2.3,0.9,2.6-2.7,3.6C64.2,406.4,59.7,406.5,51.9,405.6L51.9,405.6z
		 M-200.9,398.2c-3.6-3.4-4-4.8-1.6-5.7c2.1-0.8,6.1,1.9,7.6,5.1c1.6,3.4,1.5,3.6-0.8,3.6C-196.8,401.2-199.1,399.9-200.9,398.2z
		 M256,392.9c1.1-0.6,3.4-1.5,5-2.1c3.5-1.3,2.9-2.6-1.5-3.5c-3.1-0.6-3.2-0.8-1.4-2.1c1-0.8,1.6-1.9,1.2-2.5s0.7-1.6,2.4-2.2
		c1.7-0.6,3.1-1.5,3.1-2.1c0-2.4-2.2-6.4-3.4-6.3c-2.8,0.4-4.1-0.1-3.6-1.4c0.3-0.7,0-2.1-0.5-3.1c-1.3-2.6,1.7-8,4.6-8
		c0.4,0,0.7,0.6,0.5,1.3c-0.1,0.7,0.8,1.4,2.2,1.6l2.4,0.4l-2.3,2.5l-2.3,2.5l2.6,1c2.8,1.1,5.5,4.6,8.3,10.7
		c1.3,2.9,2.2,3.7,3.7,3.3c3.2-0.8,3.5,1.3,0.6,3.3c-2,1.3-2.4,2.1-1.5,2.9c0.9,0.9-0.9,1.5-6.9,2.3c-4.4,0.6-9.7,1.5-11.7,1.8
		C254.8,393.8,254.4,393.7,256,392.9L256,392.9z M238.5,387.2c-0.4-0.9,0-3,0.9-4.7c1-1.9,1.2-3.2,0.5-3.6c-1.8-1.1-1.1-2.5,1.5-3.2
		c1.4-0.4,3.1-1.3,3.8-2.1c1.4-1.7,7.8-2,8.7-0.4c0.4,0.6-0.1,2.1-1,3.3c-0.9,1.3-1.6,3.5-1.6,5.1c0,2.3-0.7,3-4.4,4.3
		c-2.4,0.8-5.2,1.9-6.1,2.3C239.8,388.6,238.9,388.3,238.5,387.2z M257.6,376.9c0-0.3,0.5-0.7,1-1.1c0.6-0.4,1-0.1,1,0.5
		s-0.5,1.1-1,1.1C258,377.3,257.6,377.1,257.6,376.9z M-202.9,371.9c-1-1.2-1-1.8,0.3-2.9c2.1-1.7,3.2-0.6,1.9,2.2
		C-201.5,373.1-201.8,373.2-202.9,371.9L-202.9,371.9z M-204.5,364.1c-0.4-0.6,0.1-1.6,0.9-2.3c1.7-1.4,2-0.3,0.6,1.9
		C-203.5,364.6-204.1,364.7-204.5,364.1z M-271.6,363.4c0-0.7,3.1-2,7.6-3.1c1.7-0.4,2.7-0.3,2.4,0.2c-0.3,0.5-1.9,1.2-3.5,1.5
		s-3.7,0.9-4.7,1.3C-270.7,363.8-271.6,363.8-271.6,363.4L-271.6,363.4z M345,351.8c-1.9-0.8-1.6-2,0.6-2.1c1-0.1,1.9,0.5,1.9,1.3
		C347.5,352.5,347.1,352.6,345,351.8L345,351.8z M117,346.5c-6.6-3.6-9.7-9.1-7.8-13.7c0.9-2.2,0.9-3.5,0.1-5.1
		c-1.7-3.2,0.5-7,6.3-10.5c2.7-1.7,5.4-4,6-5.1c1.7-3.1,0.2-8.4-2.7-9.7c-1.5-0.7-2.3-1.7-1.9-2.6c0.7-1.9-2.7-8.5-6.2-11.7
		c-2.5-2.4-3.6-2.6-12.3-2.7c-11.8-0.1-14-0.7-13.8-4.1c0.1-1.4,0.4-2.6,0.7-2.6c0.3,0,4.5-0.5,9.3-1.1c6.2-0.8,11.7-2.3,18.6-5.3
		c10.7-4.5,11.5-4.6,36.9-4c8,0.2,15.4-0.4,24.9-2c8.8-1.5,15.3-2,18.8-1.6c3,0.4,7.3,0.1,9.7-0.5c5.7-1.5,20.4,0.3,26.1,3.3
		c3.4,1.7,5.2,2,11,1.4c6.2-0.6,6.7-0.5,4.8,0.8c-1.1,0.8-4.6,1.9-7.8,2.3c-6.8,0.9-13.1,5.8-11.4,8.8c0.7,1.3,0.2,2.5-2.1,4.7
		c-1.7,1.6-3.3,3.7-3.6,4.7c-0.7,2.3-9.9,6.5-14.4,6.7c-5.1,0.2-5.6,1.2-1.7,3.4c1.8,1,4.5,2.7,6,3.8l2.6,2l-2.4,0.9
		c-1.8,0.7-3.3,0.2-6.3-1.9c-4.1-2.9-8.5-2.9-6.2,0c0.9,1.1,0.7,1.5-1,2c-3.9,1-1.1,3,3.1,2.3c2.7-0.5,4.2-0.2,5.1,0.8
		c1,1.2-0.3,1.8-7.9,3.4c-5,1-11.6,1.9-14.8,2c-5.8,0.1-10,1.8-16.2,6.5c-2,1.5-6.3,3-11.3,4c-10.5,2-14,4.3-20.3,13.3
		c-5.1,7.2-8.1,9.9-11.3,9.9C122.9,349.3,119.8,348,117,346.5L117,346.5z M43.4,339.5c-2.2-1.4-5-3.9-6.1-5.7
		c-2.2-3.4-4.2-3.9-10-2.2c-2,0.6-4.2,0.6-5.1,0.1c-3.1-1.7,2.5-3.4,8.7-2.6c4.7,0.6,5.7,0.4,6.3-1c1.1-2.9,6.1-4.9,8.9-3.6
		c1.7,0.8,3.3,0.8,5.5-0.1c3-1.1,3-1.2,1.1-2.7c-1.1-0.8-2.4-1.5-2.8-1.5c-0.4,0-2-2.1-3.5-4.6s-4.3-5.6-6.2-6.8
		c-3.3-2-3.7-2.1-6.6-0.5c-2.6,1.3-4,1.4-8.1,0.5c-2.7-0.6-6.5-0.8-8.5-0.5c-3.3,0.6-9.5-1-9.5-2.5c0-2.8,8.8-9,14-10l4.1-0.7
		l-3,3.2c-4.1,4.4-2.6,6.4,1.9,2.5c1.9-1.7,5.1-3.3,7.2-3.7c3.2-0.6,4.6-0.2,8.6,2.5c5.4,3.5,5.8,3.6,8.8,2c1.8-1,2.5-0.7,4.5,1.8
		c1.4,1.7,4.4,3.6,7.4,4.5c4.7,1.5,5.1,1.8,5.1,5.1c0,2.5,0.7,4,2.4,5.2c7,5,6.8,4.8,5.3,7.2c-2.1,3.3-3.7,3.5-8.3,1.2
		c-3.2-1.6-4.6-1.8-6.2-1c-2,1-2,1.3-0.4,4.3c1.3,2.5,1.4,3.8,0.5,5.7c-1.1,2.4-1.3,2.4-4.2,0.9c-5.8-3-9.7-1-4.3,2.2
		c1.7,1,2.8,2.2,2.6,2.7C52.6,342.8,47.4,342,43.4,339.5L43.4,339.5z M256.5,340.9c0-0.5,0.7-0.9,1.6-0.9s1.6,0.4,1.6,0.9
		s-0.7,0.9-1.6,0.9S256.5,341.3,256.5,340.9z M4.3,335.3c-2-1.1-3.6-1.2-6.5-0.4c-4.9,1.3-6.6,0.4-4.1-2.4c3.2-3.5,5.3-4.2,9.1-2.9
		c4.3,1.4,6.2,3.5,5,5.6C7.1,336.5,6.6,336.5,4.3,335.3z M210.4,334.8c-1.7-1.1-3.9-1.8-4.8-1.5c-1.3,0.4-1.6,0.1-1.2-1.5
		c0.6-2.4,9.7-5.8,12.8-4.8c1.1,0.3,3.8,0.1,6.1-0.6c3.6-1.1,4.5-1,7,0.6l2.8,1.8l-2.5,1.9c-2.1,1.6-6,3.1-15.5,5.6
		C214.2,336.7,212.1,335.9,210.4,334.8z M-71.3,315.4c-1.4-0.2-4.9-1.4-7.7-2.7l-5.1-2.3l7.2-0.5c4-0.3,7.2-1,7.2-1.6
		s-2.8-1.3-6.2-1.6c-4.5-0.4-5.4-0.7-3.1-1c3.8-0.6,4.1-2.2,0.5-3.1c-2.5-0.6-2.5-0.7,1.1-2.2c6.2-2.7,12.8-3.2,18.7-1.4
		c4.8,1.4,5.6,1.4,7.8-0.1c1.6-1.1,2.6-1.2,2.6-0.5c0.1,0.6,0.2,1.7,0.3,2.4c0.2,2.2,2.3,2,4.8-0.7c2.3-2.4,6.2-3.6,6.2-1.8
		c0,0.4-0.9,2.3-2.1,4.1l-2,3.4l3.3,1.7l3.3,1.7l-5.5,2.5c-5,2.3-6,2.4-10.4,1.3c-4.3-1-5.5-0.9-9.9,0.9
		C-65.2,316.1-66.2,316.2-71.3,315.4L-71.3,315.4z M-29.7,314.7c-0.9-1.1-0.6-1.7,1.9-2.7c1.7-0.7,4.1-0.9,5.4-0.5
		c2.2,0.7,2.2,0.8-1.2,2.6C-28,316.5-28.2,316.5-29.7,314.7L-29.7,314.7z M256.5,309.9c2-1.3,3.1-1.3,3.1,0c0,0.6-1.1,1-2.3,1
		C255.4,310.9,255.3,310.7,256.5,309.9z M446.9,307c-5.3-2.1-5.2-2-3.7-3.8c0.7-0.9,0.9-1.6,0.4-1.6s0-0.7,1.2-1.6
		c1.1-0.9,2.1-1.9,2.1-2.3c0-1.5,4.3-5.6,7.2-6.9c1.7-0.8,6.1-1.7,9.9-2c3.7-0.3,8.7-0.8,11-1.2c2.5-0.4,4.6-0.2,4.9,0.4
		c0.7,1.2-0.7,1.7-8.7,3.1s-12.8,3.7-16,7.4c-3.3,4-3.4,6.5-0.4,8.6l2.3,1.6H454C452.5,308.7,449.2,307.9,446.9,307L446.9,307z
		 M-96.5,304c-1.7-1.7-1.3-2,6.7-6.4c9.4-5.1,14.1-5.8,22.6-3.3l4.7,1.4l-6.2,1.2c-5.1,1-15.9,4.6-24.4,8.2
		C-94,305.5-95.5,305-96.5,304z M-21.5,302.7c0-0.6-1.3-1.7-2.9-2.6l-2.9-1.6l3.8,0.6c2.7,0.4,4.1,0.2,4.7-0.9
		c0.7-1.2,7.3-3.8,10-3.8c0.4,0,0.1,1.4-0.8,3.1C-11.7,301.5-21.5,305.8-21.5,302.7L-21.5,302.7z M-5.4,299.6
		c-1.5-2.4,8.7-6.1,13-4.8c3.1,1,1,2.7-4.4,3.6c-2.5,0.4-5.2,1.1-6.2,1.5C-3.9,300.4-5,300.2-5.4,299.6L-5.4,299.6z M27.8,292
		c-6.8-0.5-12.6-1.1-12.7-1.3c-0.9-0.9,1.4-3.7,3.9-4.7c2.4-1,3.6-0.9,6.9,0.8c3.3,1.7,5.4,1.9,11.4,1.5c4.1-0.3,8.8-0.2,10.4,0.2
		l2.9,0.7l-3.6,1.9c-2,1.1-4.3,1.9-5.2,1.8C40.9,293.1,34.6,292.6,27.8,292L27.8,292z M326.3,287.8c-5.1-2.6-5.6-3.8-1.6-3.8
		c1.6,0,3.6-0.5,4.4-1.1c1.3-1,1.3-1-0.1-0.6c-0.9,0.3-2.2,0-2.9-0.7c-0.9-0.9-1.4-0.9-2,0.1c-0.6,0.9-1.7,1-3.8,0.4
		c-5.5-1.6-6.7-2.4-6.7-4c0-1.4,1.4-1.5,9.9-0.9c6.5,0.5,9.9,0.3,9.9-0.4c0-2,2.9-1,3.6,1.3l0.8,2.3l0.5-2.3
		c0.3-1.3,1.1-2.3,1.9-2.3s1.5-0.6,1.5-1.2c0-1,0.3-1,1.2,0c0.7,0.7,4.2,1.2,8.3,1.2c7.4,0,9.2,1.3,4.2,3.2c-2.6,1-7,0.7-11.9-0.7
		c-1-0.3-1.8-0.2-1.8,0.3c0,1,5.8,4.5,7.4,4.5c0.6,0,1.7,0.7,2.5,1.5c1.2,1.2,1.2,1.5-0.1,2c-0.8,0.3-1.5,0.1-1.5-0.5
		c0-0.7-1.3-0.9-3.7-0.4c-2.6,0.5-3.5,0.4-3-0.4c0.4-0.6,0.1-1.8-0.5-2.7c-1.3-1.6-5.1-2.1-5.1-0.7c0,0.5-1.5,2.5-3.4,4.6l-3.4,3.7
		L326.3,287.8L326.3,287.8z M51.1,285.5c-1.8-1.1-4.3-1.4-8.3-1c-3.7,0.3-6.5,0-8.1-0.8c-2.1-1.2-1.6-1.4,4.9-1.3
		c8.1,0.1,11.7-1.7,7.3-3.5c-2.1-0.9-1.8-1,1.8-0.5c4.7,0.6,6.5-0.6,3.9-2.7c-2.7-2.2,0.3-2.9,9.9-2.3c6,0.4,9.7,0.2,11.2-0.7
		c2.9-1.6,1.8-3.6-1.6-2.7c-2.3,0.6-18.4-0.4-17.7-1.1c0.5-0.5,23.3-2.6,38.3-3.5c7.8-0.5,16.4-1.2,19.2-1.5l5.1-0.6l-8.4,4
		c-7.8,3.8-20.6,7.4-25.8,7.4c-1.3,0-4.9,1.4-8.2,3.1c-3.2,1.7-6.5,3.1-7.3,3.1s-4.2,1.4-7.5,3.1s-6.1,3.1-6.1,3.1
		C53.7,287,52.5,286.3,51.1,285.5L51.1,285.5z M30.9,276c-5-1.1-5.2-1.5-1.5-3.4c5.4-2.8,10.5-3.5,12.8-1.8c1.8,1.4,1.7,1.6-1.9,3.7
		C36.5,276.7,35,276.9,30.9,276z"/>
</g>
</svg>
