<svg xmlns="http://www.w3.org/2000/svg" viewBox="0 0 288.72 141.14">
  <defs>
    <style>
      .cls-1 {
        fill: #fff;
      }
    </style>
  </defs>
  <title>Asset 1</title>
  <g id="Layer_2" data-name="Layer 2">
    <g id="Layer_1-2" data-name="Layer 1">
      <g>
        <path d="M143.81,96.14c4.07-2,6.75-3.6,9.26-6.66,12.18-14.79,16-34.47,29.11-48.61.87-.93,1.3-2.36,3.81-2.33-2.9,10.07-7.13,19.26-11,28.58s-11,16.59-16.56,24.94c8.31-1.18,13-7.3,18.91-12-.52,5.17-6.31,7.24-7.05,12.43,4.49.15,8-1.49,10.41-4.92,4.24-6,11-6,16.11-4.21C224,92.86,252.38,93.32,280.61,95c4.71.28,4.72.16,8.08,1.72.2,1.55-.71,2.24-2,2-16.42-2.92-33.16-2.29-49.66-4.55-12.21-1.68-24.62-2.36-36.05-7.29-8.27-3.56-14.18-.06-19.68,5.15a12.23,12.23,0,0,1-12.15,2.84c-5.34-2-8.77-.36-12.83,2.65-1.57-3.64-3.6-3.82-6.89-1.68-2.3,1.49-5.61,4.85-8.26-.14-.39-.73-1.14-.2-1.78-.09-5.71.94-11,3-14.54,7.69-7.34,9.62-13.43,20.19-21.76,29.09-.57.6-1.07,1.27-1.67,1.84-1.41,1.35-3,3.55-5,2s-.48-3.61.32-5.41C103,116.77,109,102.56,117,89.28c3.48-5.77,3.9-12.64,5.68-19a110.28,110.28,0,0,1,34.93-55.11,57.32,57.32,0,0,1,8.79-5.66c1.43-.84,3.16-1.34,4.65,0,1.29,1.19.91,2.78.59,4.22-1.59,7.17-4.64,13.85-7.49,20.56-5.5,13-11.07,26-18.63,38-1.55,2.44-.49,4.51-.4,6.5.26,5.64-4.28,8.76-6.39,13.72,6.44-.53,6.68-9.1,13.28-9.4C150.81,88.5,144.86,90.13,143.81,96.14Zm-3.73-34.55c-9.38,10-18,20.16-20.5,30.35-7,7.77-9.36,14.61-12.45,20.91-3.26,6.65-6.14,13.48-9.19,20.23,4.26-2.29,7-5.57,9.54-9a425.11,425.11,0,0,0,24.71-36.71c3-5,7.69-8.6,10.69-13.7,8.52-14.5,15.42-29.75,21.75-45.26,2.2-5.39,4.82-10.82,5.19-17-18.7,4.44-44.07,42.87-46.64,67.85C128.49,72.52,131.84,64.53,140.08,61.59Zm21.77,21c9.5-9.68,13.73-22,18-34.34C172.66,59.11,166.22,70.34,161.85,82.62Zm-21.1-.07c-4.22,4-8.11,8.19-10.19,13.7C136,93.21,138.25,87.78,140.75,82.55Z"/>
        <path d="M32.27,100.8c8.35-2,10.18-10.3,17.35-13.27-.52,6.2-7.27,7.59-8.6,13.38,9.13-.67,13.42-8.29,20.78-12.85-1.2,5.09-4.36,7.56-6,11.47,7-1.18,10.78-6.71,16.06-11,.71,4.74-3.06,6.82-3.72,10.42,6.67.63,7.32-7.7,13.11-8.62.64,3.57-2.4,5-4.47,8,6.86-1.57,11.07-5.84,16.34-8.94-2.92,6.3-12,11.57-17.87,10.59-1.32-.22-2.2.42-3.28.7-6,1.58-12.06-.5-18.22.66-2.1.39-5-.52-7.42.86-2.25,1.28-4.23,2.15-6.69-.18-2.09-2-9.28,1.67-11.67,5.58-5,8.22-10,16.49-15.08,24.64a67.65,67.65,0,0,1-5.52,7c-1.11,1.33-2.53,2.22-4.4,1.56S.17,138.62.06,136.65A41.93,41.93,0,0,1,4,117.31c4.6-10.49,9.45-20.89,15.67-30.55,3-4.69,2.46-9.91,2.54-15,.27-17.12,2.92-33.69,10.31-49.32C35.68,15.68,39.36,9.2,44.7,3.81,47.24,1.26,50.15-1,54,.49c3.41,1.35,3.82,4.7,4,8,.73,13.7-1.4,27.14-3.77,40.55-2.94,16.6-9.86,31.59-18.57,45.87C34.62,96.53,33.71,98.25,32.27,100.8Zm-2.93.74C46.8,77.9,57.24,44.45,56.62,13.73c-.09-4.18.86-9.66-4.18-11.2C47.84,1.13,45.22,5.8,42.77,9c-9.57,12.59-14.58,27.1-17,42.52a150.08,150.08,0,0,0-1.84,27.32c4.91-4.63,6.75-10.79,12.66-13.65.24,2.78-1.5,3.59-2.61,4.58C21.05,81.34,22,96.55,23.13,112l4.29-6.8c0-2-3.42-2.33-2.13-4.38C27.36,98.9,27.75,102.35,29.34,101.54ZM20.26,90.82c-11,12-20.81,40.26-16.39,48.59C18.89,126.28,23.52,110,20.26,90.82Z"/>
        <path d="M91.17,96.52c8.46-11.87,12.55-25.58,20.24-37.44-4.57,12.22-8.9,24.52-16.8,36,5.12.14,7.88-3.43,11.77-4.16a16.72,16.72,0,0,1,1.72,2.6c.78,1.8-1,3-1.73,2.11-2.52-2.94-4.07-.51-5.87.52C97.78,97.7,95.05,98.45,91.17,96.52Z"/>
        <path class="cls-1" d="M140.08,61.59c-8.24,2.94-11.59,10.93-16.9,17.62,2.57-25,27.94-63.41,46.64-67.85-.37,6.21-3,11.64-5.19,17C158.3,43.9,151.4,59.15,142.88,73.65c-3,5.1-7.73,8.7-10.69,13.7a425.11,425.11,0,0,1-24.71,36.71c-2.56,3.45-5.28,6.73-9.54,9,3-6.75,5.93-13.58,9.19-20.23,3.09-6.3,5.47-13.14,12.45-20.91C122,81.75,130.7,71.58,140.08,61.59Z"/>
        <path class="cls-1" d="M161.85,82.62c4.37-12.28,10.81-23.51,18-34.34C175.58,60.59,171.35,72.94,161.85,82.62Z"/>
        <path class="cls-1" d="M140.75,82.55c-2.5,5.23-4.73,10.66-10.19,13.7C132.64,90.74,136.53,86.52,140.75,82.55Z"/>
        <path class="cls-1" d="M29.34,101.54c-1.59.81-2-2.64-4.05-.75-1.29,2,2.11,2.36,2.13,4.38L23.13,112C22,96.55,21.05,81.34,34,69.79c1.11-1,2.85-1.8,2.61-4.58-5.91,2.86-7.75,9-12.66,13.65a150.08,150.08,0,0,1,1.84-27.32C28.19,36.12,33.2,21.61,42.77,9c2.45-3.22,5.07-7.89,9.67-6.49,5,1.54,4.09,7,4.18,11.2C57.24,44.45,46.8,77.9,29.34,101.54Z"/>
        <path class="cls-1" d="M20.26,90.82c3.26,19.15-1.37,35.46-16.39,48.59C-.55,131.08,9.3,102.8,20.26,90.82Z"/>
      </g>
    </g>
  </g>
</svg>
