<svg xmlns="http://www.w3.org/2000/svg" viewBox="0 0 253.67 185.36">
  <defs>
    <style>
      .cls-1 {
        fill: #fff;
      }
    </style>
  </defs>
  <title>Asset 1</title>
  <g id="Layer_2" data-name="Layer 2">
    <g id="Layer_1-2" data-name="Layer 1">
      <g>
        <path d="M219.46,138.89l-8.89-7.67c-.37,1.17-.88,2.75-1.39,4.33-2.2,6.77-3.71,7.51-10.75,7.53-2.52,0-5,1.85-6.71,2.52-1.78,2.16-3.33,5.3-4.44,5.16-2.9-.38-5.6-2.21-8.28-3.42-.63,5.3,1.2,11.71-.7,17.74h-1.55a14,14,0,0,1-.55-3.46c1.53-17-3.29-32.86-8.37-48.79-2.71-8.48-3.93-17.44-5.57-26.23-.3-1.61.61-3.46,1-5.19l1.64-.09c.77,1.69,1.86,3.32,2.25,5.09,3.15,14.28,5.95,28.63,9.35,42.85,1.18,4.94,3.55,9.63,5.72,14.28.83,1.77,2.64,3.08,5.06,4.05q-1-8.19-2.05-16.38l2.34-.57q2.53,5.42,5.06,10.82l1-.29c-2.21-6.82-4.6-13.59-6.57-20.48-2-7.19-3.95-14.44-5.41-21.76s-3.41-14.64.22-22.93c1.31,1.7,2.14,2.35,2.39,3.18,4.51,14.74,9.16,29.45,13.27,44.31,1,3.72.07,8,.51,11.91.17,1.57,1.48,4,2.6,4.23,1.35.24,4-1.14,4.45-2.42,2.47-6.56,3.75-13.1,1.84-20.4-3.89-14.91-6.93-30-10.13-45.14-.6-2.84-.33-5.86-.52-9.94l-50,15.08c7.35,36.71,18.53,71.58,23.19,107.8l-1.87.75c-.81-1.79-2.12-3.51-2.37-5.37-4.27-32.56-14-63.91-21-95.86-.36-1.61-.89-3.18-1.42-5-29.55,12.81-55.36,30.21-75.52,55.36a5.92,5.92,0,0,0-.89,1.2c-1.3,2.94-2.55,5.91-3.81,8.86,2.85,0,5.71-.05,8.56,0,.27,0,.54.3.8.47-2.15,2.93-7.87,4.38-10.77,2.5-3.92-2.55-1.72-5.65-.15-8.25,8.09-13.29,19.36-23.69,31.29-33.36,13.51-11,28.57-19.43,44.39-26.58,1.79-.8,3.57-1.64,6.68-3.07-5.08-12.66-9.15-25.52-15.25-37.34-7.53-14.56-18.75-17.94-34.12-12.1C71,35.49,52,50.13,35.26,67.91,24.43,79.45,14.19,91.53,7,105.82c-2.5,5-6,11.22-2,15.24,2.66,2.69,9.82,2.43,14.46,1.33A214.46,214.46,0,0,0,50.3,112.7C76,102.29,101.2,90.58,124.84,75.88c2.61-1.62,4.92-3.7,8.4-6.35l-5.61-.66c.14-.46.2-.91.3-.92,2.32-.24,4.65-.44,8.29-.76a28.19,28.19,0,0,1-13,13.7C109.92,88,96.56,95.08,82.92,101.57c-20.09,9.55-40.11,19.48-62.2,23.74a62.22,62.22,0,0,1-14.37.79c-4.3-.18-7.12-3.19-6.16-7.38,1.35-5.91,2.82-12.18,6-17.22,21.12-33.78,48.73-60.59,85.6-76.87a46.45,46.45,0,0,1,13.43-3.5c8.93-1,16.62,2.26,21.75,9.63,4.23,6.09,7.57,12.82,11.11,19.37,2.71,5,5.13,10.16,7.36,14.62l8.46-3.57,1.28,1.08c.67-4.61,1.35-9.22,2.15-14.67l-16.54,4.75-.63-1.72c4.61-4.1,11.39-3.5,16.46-6.43-1.31-9-2.73-18-3.9-27a120.89,120.89,0,0,1-.93-13.45c0-1.37,1-2.76,2.55-3.75,1.75,14.21,3.49,28.42,5.25,42.77l15.82-3.06.36,1.69-14.69,4.73c1.74,3.92,3,7.55,4.86,10.79,3.81,6.52,8.58,8.19,15.86,6.4,15.86-3.89,31.79-7.64,48.3-5.61,17.64,2.17,26.28,14.26,22.87,31.74a78.08,78.08,0,0,1-21,40.13c-7.61,7.82-16.5,14.42-25,21.38a8.82,8.82,0,0,1-6.23,1.6ZM199.7,61.66c3.36,16.28,6.46,32.05,9.91,47.74a204.43,204.43,0,0,0,6,21.46c.74,2.16,2,4.32,6.33,2.94,3.62-1.15,5.28-3.33,7.24-5.5,10.5-11.64,18.73-24.57,21.49-40.38,2.38-13.61-4.63-24-18.21-26.87C221.53,58.76,210.65,59.85,199.7,61.66Zm-39.9-7.4c-2.39,12.39-2.39,12.39-8.61,11.19l-7,4.4c.33,1.16.89,3.15,1.51,5.38l24.06-8.67C166.39,62.43,163.14,58.41,159.8,54.26Zm25.28,34.33-1.87.28q4.95,21.47,9.89,42.94l1.59-.36C195.29,116.33,189.14,102.69,185.08,88.59Z"/>
        <path class="cls-1" d="M199.7,61.66c11-1.81,21.83-2.9,32.77-.61,13.58,2.85,20.59,13.26,18.21,26.87-2.76,15.81-11,28.74-21.49,40.38-2,2.17-3.62,4.35-7.24,5.5-4.33,1.38-5.59-.78-6.33-2.94a204.43,204.43,0,0,1-6-21.46C206.16,93.71,203.06,77.94,199.7,61.66Z"/>
        <path class="cls-1" d="M159.8,54.26c3.34,4.15,6.59,8.17,9.93,12.3l-24.06,8.67c-.62-2.23-1.18-4.22-1.51-5.38l7-4.4C157.41,66.65,157.41,66.65,159.8,54.26Z"/>
        <path class="cls-1" d="M185.08,88.59c4.06,14.1,10.21,27.74,9.61,42.86l-1.59.36q-4.95-21.47-9.89-42.94Z"/>
      </g>
    </g>
  </g>
</svg>
